<svg width="95" height="44" viewBox="0 0 95 44" fill="none" xmlns="http://www.w3.org/2000/svg">
<g clip-path="url(#clip0_2144_2)">
<path fill-rule="evenodd" clip-rule="evenodd" d="M15.8047 13.3113C15.716 13.1435 15.6003 13.1319 15.4574 13.2765C14.0814 14.271 12.7151 15.2789 11.3587 16.3002C11.3818 16.3234 11.405 16.3466 11.4281 16.3697C13.0441 15.9308 14.6651 15.5137 16.291 15.1185C17.0386 17.2812 17.7216 19.4592 18.3403 21.6525C16.0124 19.9781 13.6967 18.2867 11.3934 16.5783C9.05999 18.2612 6.7328 19.9526 4.41173 21.6525C5.19964 18.9273 6.05642 16.2049 6.98209 13.485C4.6977 11.7385 2.38205 10.024 0.0351562 8.34128C2.90656 8.31813 5.77796 8.29492 8.64936 8.27177C9.53669 5.51547 10.4514 2.76981 11.3934 0.03479C12.2921 2.76708 13.1836 5.50116 14.068 8.23702C16.9391 8.29492 19.8105 8.32967 22.6822 8.34128C20.4163 10.0418 18.1238 11.6984 15.8047 13.3113Z" fill="#24AD79"/>
<path fill-rule="evenodd" clip-rule="evenodd" d="M24.835 8.30652C28.0537 8.30652 31.2725 8.30652 34.4912 8.30652C34.4912 8.90896 34.4912 9.51134 34.4912 10.1138C33.2407 10.1138 31.9903 10.1138 30.7399 10.1138C30.7399 13.4734 30.7399 16.8331 30.7399 20.1928C30.022 20.1928 29.3041 20.1928 28.5863 20.1928C28.5863 16.8331 28.5863 13.4734 28.5863 10.1138C27.3359 10.1138 26.0854 10.1138 24.835 10.1138C24.835 9.51134 24.835 8.90896 24.835 8.30652Z" fill="#222222"/>
<path fill-rule="evenodd" clip-rule="evenodd" d="M73.3252 8.30652C73.9733 8.30652 74.6222 8.30652 75.2703 8.30652C75.2703 8.90896 75.2703 9.51134 75.2703 10.1138C74.6222 10.1138 73.9733 10.1138 73.3252 10.1138C73.3252 9.51134 73.3252 8.90896 73.3252 8.30652Z" fill="#222222"/>
<path fill-rule="evenodd" clip-rule="evenodd" d="M76.9375 8.30652C77.5856 8.30652 78.2345 8.30652 78.8826 8.30652C78.8826 12.2686 78.8826 16.2307 78.8826 20.1928C78.2345 20.1928 77.5856 20.1928 76.9375 20.1928C76.9375 16.2307 76.9375 12.2686 76.9375 8.30652Z" fill="#222222"/>
<path fill-rule="evenodd" clip-rule="evenodd" d="M58.5282 9.00159C59.1765 9.00159 59.825 9.00159 60.4733 9.00159C60.4733 9.85886 60.4733 10.7162 60.4733 11.5735C61.0522 11.5735 61.6312 11.5735 62.2101 11.5735C62.2101 12.06 62.2101 12.5466 62.2101 13.0332C61.6312 13.0332 61.0522 13.0332 60.4733 13.0332C60.4617 14.7248 60.4733 16.4162 60.5081 18.1074C60.5431 18.3521 60.6704 18.5259 60.8901 18.6288C61.3106 18.6837 61.7274 18.6721 62.1406 18.594C62.2318 19.1194 62.2318 19.6407 62.1406 20.158C61.2239 20.3338 60.3208 20.2874 59.4313 20.019C58.8917 19.7327 58.6022 19.2809 58.5629 18.6635C58.5282 16.7869 58.5166 14.9101 58.5282 13.0332C58.0419 13.0332 57.5556 13.0332 57.0693 13.0332C57.0693 12.5466 57.0693 12.06 57.0693 11.5735C57.5556 11.5735 58.0419 11.5735 58.5282 11.5735C58.5282 10.7162 58.5282 9.85886 58.5282 9.00159Z" fill="#222222"/>
<path fill-rule="evenodd" clip-rule="evenodd" d="M94.5127 11.5735C94.5127 12.06 94.5127 12.5466 94.5127 13.0332C93.9569 13.0332 93.4012 13.0332 92.8454 13.0332C92.8336 14.7711 92.8454 16.5088 92.8801 18.2464C92.9614 18.4202 93.0885 18.5476 93.2622 18.6288C93.6846 18.6835 94.1014 18.6719 94.5127 18.594C94.5127 19.1037 94.5127 19.6135 94.5127 20.1232C93.7541 20.2878 92.9899 20.2994 92.2202 20.158C91.2337 19.9107 90.7822 19.2735 90.8655 18.2464C90.8308 16.5088 90.819 14.7711 90.8308 13.0332C90.3674 13.0332 89.9048 13.0332 89.4414 13.0332C89.4414 12.5466 89.4414 12.06 89.4414 11.5735C89.9048 11.5735 90.3674 11.5735 90.8308 11.5735C90.8308 10.7162 90.8308 9.85886 90.8308 9.00159C91.5026 9.00159 92.1736 9.00159 92.8454 9.00159C92.8454 9.85886 92.8454 10.7162 92.8454 11.5735C93.4012 11.5735 93.9569 11.5735 94.5127 11.5735Z" fill="#222222"/>
<path fill-rule="evenodd" clip-rule="evenodd" d="M37.9646 11.2954C38.3384 11.2832 38.7089 11.3064 39.0761 11.3649C39.0761 11.9905 39.0761 12.6161 39.0761 13.2417C37.2686 12.953 36.2381 13.7176 35.9848 15.5355C35.95 17.0878 35.9384 18.6401 35.95 20.1927C35.3017 20.1927 34.6532 20.1927 34.0049 20.1927C34.0049 17.3196 34.0049 14.4465 34.0049 11.5734C34.607 11.5734 35.209 11.5734 35.8111 11.5734C35.7996 12.0606 35.8111 12.5471 35.8458 13.0332C36.2759 12.1037 36.9821 11.5244 37.9646 11.2954Z" fill="#222222"/>
<path fill-rule="evenodd" clip-rule="evenodd" d="M52.2063 11.2954C53.4338 11.1737 54.5453 11.4634 55.5408 12.1643C56.0354 12.6791 56.3133 13.2931 56.3745 14.0063C55.7026 14.0179 55.031 14.0063 54.3599 13.9716C54.0827 13.1595 53.5038 12.8004 52.6231 12.8942C52.0706 12.8429 51.596 13.005 51.199 13.3807C51.0494 13.857 51.1999 14.2161 51.6506 14.4582C52.8286 14.7913 54.0095 15.1157 55.1935 15.4313C56.4885 16.0494 56.9401 17.0573 56.5482 18.455C56.0102 19.5247 55.1418 20.1387 53.9431 20.297C52.8293 20.4932 51.7409 20.4006 50.678 20.019C49.539 19.4928 48.9832 18.6008 49.0107 17.3428C49.6591 17.3428 50.3075 17.3428 50.9559 17.3428C51.0125 18.1296 51.4293 18.6046 52.2063 18.7678C52.9511 18.9038 53.6689 18.8111 54.3599 18.4898C54.8684 17.9037 54.7989 17.394 54.1515 16.9605C52.9214 16.6239 51.6941 16.2763 50.4696 15.9179C49.3381 15.304 48.9329 14.3656 49.2539 13.1027C49.569 12.3936 50.09 11.8955 50.8169 11.6082C51.2825 11.4713 51.7456 11.367 52.2063 11.2954Z" fill="#222222"/>
<path fill-rule="evenodd" clip-rule="evenodd" d="M67.4197 11.2955C69.9748 11.1888 71.4684 12.3936 71.9005 14.91C72.1436 16.4398 71.8428 17.8532 70.9974 19.1501C69.897 20.3326 68.5653 20.6918 67.0029 20.2275C66.3727 20.0602 65.8516 19.7243 65.4398 19.2196C65.4051 20.5865 65.3935 21.9535 65.4051 23.3207C64.7567 23.3207 64.1083 23.3207 63.46 23.3207C63.46 19.405 63.46 15.4892 63.46 11.5735C64.0621 11.5735 64.6641 11.5735 65.2662 11.5735C65.2546 11.9218 65.2662 12.2694 65.3009 12.6161C65.4944 12.2603 65.7606 11.9707 66.0998 11.7473C66.5311 11.5455 66.971 11.395 67.4197 11.2955ZM67.1418 12.8942C68.7684 12.7943 69.7059 13.5589 69.9553 15.188C70.1276 16.2499 69.9192 17.2231 69.3301 18.1075C68.5174 18.879 67.6028 19.0296 66.5861 18.5593C65.8701 18.0656 65.4649 17.3821 65.3704 16.5087C65.2089 15.4861 65.3942 14.5361 65.9261 13.6588C66.2557 13.2686 66.661 13.0138 67.1418 12.8942Z" fill="#222222"/>
<path fill-rule="evenodd" clip-rule="evenodd" d="M84.0234 11.2954C85.7067 11.1264 87.0849 11.6825 88.1568 12.9637C89.0558 14.5637 89.1947 16.2319 88.5736 17.9684C87.9248 19.3811 86.8251 20.1805 85.2739 20.3665C82.5319 20.6099 80.8758 19.3934 80.3068 16.7172C80.0949 15.2734 80.3964 13.9527 81.2099 12.7551C81.9664 11.9077 82.9043 11.4211 84.0234 11.2954ZM84.0929 12.8942C85.8095 12.8385 86.7702 13.6726 86.9759 15.3965C87.1259 16.6385 86.7438 17.6696 85.8296 18.4897C84.3103 19.1878 83.187 18.7824 82.4604 17.2733C82.0679 16.0966 82.1602 14.9612 82.7382 13.8673C83.0863 13.3904 83.5378 13.066 84.0929 12.8942Z" fill="#222222"/>
<path fill-rule="evenodd" clip-rule="evenodd" d="M40.1186 11.5735C40.7902 11.5735 41.4617 11.5735 42.1332 11.5735C42.1216 13.5663 42.1332 15.5589 42.168 17.5514C42.3483 18.3615 42.8578 18.8017 43.6963 18.8721C44.6452 18.8616 45.2935 18.4214 45.6414 17.5514C45.7433 15.5623 45.7781 13.5696 45.7456 11.5735C46.4172 11.5735 47.0887 11.5735 47.7602 11.5735C47.7602 14.4466 47.7602 17.3197 47.7602 20.1928C47.1119 20.1928 46.4635 20.1928 45.8151 20.1928C45.8266 19.8213 45.815 19.4506 45.7804 19.0806C45.1676 19.9492 44.3224 20.3894 43.2447 20.4013C41.1716 20.3542 40.141 19.2884 40.1533 17.2038C40.1186 15.3272 40.107 13.4504 40.1186 11.5735Z" fill="#222222"/>
<path fill-rule="evenodd" clip-rule="evenodd" d="M73.3252 11.5735C73.9733 11.5735 74.6222 11.5735 75.2703 11.5735C75.2703 14.4466 75.2703 17.3197 75.2703 20.1928C74.6222 20.1928 73.9733 20.1928 73.3252 20.1928C73.3252 17.3197 73.3252 14.4466 73.3252 11.5735Z" fill="#222222"/>
<path fill-rule="evenodd" clip-rule="evenodd" d="M15.8044 13.3112C15.9549 13.8903 16.1402 14.458 16.3602 15.0142C16.3216 15.0408 16.2984 15.0756 16.2907 15.1185C14.6648 15.5136 13.0438 15.9307 11.4279 16.3697C11.4047 16.3465 11.3815 16.3233 11.3584 16.3002C12.7149 15.2788 14.0811 14.2709 15.4571 13.2765C15.6 13.1318 15.7157 13.1434 15.8044 13.3112Z" fill="#0A532B"/>
<path fill-rule="evenodd" clip-rule="evenodd" d="M19.1389 43.9652C13.3266 43.9652 7.51443 43.9652 1.70215 43.9652C1.70215 38.1264 1.70215 32.2875 1.70215 26.4487C7.51443 26.4487 13.3266 26.4487 19.1389 26.4487C19.1389 32.2875 19.1389 38.1264 19.1389 43.9652Z" fill="#21A56D"/>
<path fill-rule="evenodd" clip-rule="evenodd" d="M37.9651 43.9652C32.1528 43.9652 26.3406 43.9652 20.5283 43.9652C20.5283 38.1264 20.5283 32.2875 20.5283 26.4487C26.3406 26.4487 32.1528 26.4487 37.9651 26.4487C37.9651 32.2875 37.9651 38.1264 37.9651 43.9652Z" fill="#21A56D"/>
<path fill-rule="evenodd" clip-rule="evenodd" d="M56.8608 43.9652C51.0253 43.9652 45.1899 43.9652 39.3545 43.9652C39.3545 38.1264 39.3545 32.2875 39.3545 26.4487C45.1899 26.4487 51.0253 26.4487 56.8608 26.4487C56.8608 32.2875 56.8608 38.1264 56.8608 43.9652Z" fill="#21A56D"/>
<path fill-rule="evenodd" clip-rule="evenodd" d="M75.6868 43.9652C69.8743 43.9652 64.0623 43.9652 58.25 43.9652C58.25 38.1264 58.25 32.2875 58.25 26.4487C64.0623 26.4487 69.8743 26.4487 75.6868 26.4487C75.6868 32.2875 75.6868 38.1264 75.6868 43.9652Z" fill="#21A56D"/>
<path fill-rule="evenodd" clip-rule="evenodd" d="M94.513 26.4487C94.513 32.2875 94.513 38.1264 94.513 43.9652C88.7005 43.9652 82.8887 43.9652 77.0762 43.9652C77.0762 38.1264 77.0762 32.2875 77.0762 26.4487C82.8887 26.4487 88.7005 26.4487 94.513 26.4487Z" fill="#21A56D"/>
<path fill-rule="evenodd" clip-rule="evenodd" d="M10.3858 29.4376C10.4286 29.4453 10.4634 29.4684 10.49 29.5071C10.9596 30.9357 11.4343 32.3607 11.9141 33.782C13.4655 33.8051 15.0171 33.8283 16.5685 33.8515C14.6588 35.2587 12.7368 36.6489 10.8026 38.0221C11.5664 37.9093 12.319 37.7355 13.0603 37.5008C13.4551 38.6163 13.8372 39.74 14.2066 40.872C14.1834 40.9068 14.1602 40.9415 14.1371 40.9763C12.8885 40.086 11.6496 39.1824 10.4205 38.2654C9.19138 39.1824 7.95246 40.086 6.70389 40.9763C6.68073 40.9415 6.65757 40.9068 6.63442 40.872C7.14425 39.4347 7.5958 37.9866 7.98907 36.5276C6.74407 35.6441 5.5052 34.752 4.27246 33.8515C5.84693 33.8167 7.42158 33.8051 8.99638 33.8167C9.43181 32.3474 9.89496 30.8877 10.3858 29.4376Z" fill="#FEFEFE"/>
<path fill-rule="evenodd" clip-rule="evenodd" d="M29.2118 29.4375C29.2811 29.4354 29.3274 29.4702 29.3507 29.5418C29.793 30.9505 30.2561 32.3523 30.7401 33.7472C32.2911 33.8051 33.8425 33.8398 35.3946 33.8514C33.4848 35.2587 31.5628 36.6489 29.6286 38.0221C30.401 37.9042 31.1651 37.7305 31.9211 37.5007C32.312 38.6162 32.6825 39.7399 33.0326 40.872C33.0095 40.9067 32.9863 40.9415 32.9631 40.9763C31.7332 40.0812 30.4943 39.2008 29.2465 38.3349C27.9987 39.2008 26.7599 40.0812 25.5299 40.9763C25.9119 39.5903 26.3404 38.2001 26.8151 36.8056C26.8614 36.713 26.8614 36.6202 26.8151 36.5276C25.5994 35.6356 24.3837 34.7435 23.168 33.8514C24.7193 33.8167 26.2707 33.8051 27.8224 33.8167C28.2855 32.357 28.7486 30.8973 29.2118 29.4375Z" fill="#FEFEFE"/>
<path fill-rule="evenodd" clip-rule="evenodd" d="M48.038 29.4375C48.1072 29.4354 48.1536 29.4702 48.1769 29.5418C48.6471 30.9418 49.1103 32.3436 49.5663 33.7472C51.1173 33.8051 52.6687 33.8398 54.2207 33.8514C52.3182 35.2685 50.3962 36.6588 48.4548 38.0221C49.2271 37.9042 49.9913 37.7305 50.7473 37.5007C51.1619 38.6411 51.5555 39.788 51.9282 40.9415C51.8588 40.9879 51.7893 40.9879 51.7198 40.9415C50.5252 40.0547 49.3211 39.1858 48.1074 38.3349C46.9185 39.1647 45.7376 40.0104 44.5645 40.872C44.477 40.9402 44.3844 40.9634 44.2866 40.9415C44.7375 39.5879 45.1891 38.2325 45.6413 36.8751C45.6876 36.7593 45.6876 36.6435 45.6413 36.5276C44.4256 35.6356 43.2099 34.7435 41.9941 33.8514C43.5462 33.8398 45.0976 33.8051 46.6486 33.7472C47.126 32.314 47.5891 30.8774 48.038 29.4375Z" fill="#FEFEFE"/>
<path fill-rule="evenodd" clip-rule="evenodd" d="M66.8641 29.4376C66.951 29.4429 67.0088 29.4893 67.0378 29.5766C67.4968 30.9891 67.9483 32.4025 68.3925 33.8167C69.9444 33.8051 71.4956 33.8167 73.0469 33.8515C71.1483 35.2417 69.2492 36.6319 67.3504 38.0221C68.0969 37.8933 68.838 37.7196 69.5734 37.5008C69.9798 38.6278 70.3737 39.7632 70.7544 40.9068C70.7315 40.9299 70.7079 40.9531 70.6849 40.9763C69.4388 40.104 68.1999 39.2235 66.9683 38.3349C65.7069 39.1978 64.4565 40.0783 63.217 40.9763C63.6174 39.5075 64.0689 38.0478 64.5717 36.5971C63.3115 35.6954 62.061 34.7801 60.8203 33.8515C62.3723 33.8399 63.9238 33.8051 65.4748 33.7472C65.9802 32.3227 66.4434 30.8861 66.8641 29.4376Z" fill="#FEFEFE"/>
<path fill-rule="evenodd" clip-rule="evenodd" d="M85.7598 29.4376C86.3128 30.865 86.799 32.3247 87.2186 33.8167C88.7935 33.8051 90.3684 33.8167 91.9426 33.8515C90.0085 35.2246 88.0863 36.6148 86.1766 38.0221C86.929 37.9151 87.6695 37.7413 88.3996 37.5008C88.8727 38.6416 89.243 39.8001 89.5111 40.9763C88.2628 40.086 87.0234 39.1824 85.7945 38.2654C84.5656 39.1824 83.3263 40.086 82.0779 40.9763C82.055 40.9415 82.0314 40.9068 82.0084 40.872C82.4579 39.4543 82.9206 38.0409 83.3978 36.6319C82.1745 35.6718 80.924 34.745 79.6465 33.8515C81.1977 33.8283 82.7497 33.8051 84.3009 33.782C84.7817 32.3317 85.2679 30.8836 85.7598 29.4376Z" fill="#FEFEFE"/>
</g>
<defs>
<clipPath id="clip0_2144_2">
<rect width="94.5477" height="44" fill="white"/>
</clipPath>
</defs>
</svg>
