<svg xmlns="http://www.w3.org/2000/svg" width="70" height="70" viewBox="0 0 70 70" fill="none"><path d="M43.2031 13.8086C43.302 13.8879 43.4009 13.9672 43.5027 14.0489C45.7395 15.9083 47.1177 18.6112 47.5781 21.4648C47.5823 21.6927 47.5833 21.9206 47.5781 22.1484C47.7079 22.1257 47.8377 22.103 47.9714 22.0796C52.0306 21.3726 56.0769 20.7698 60.2075 20.7385C60.4743 20.7326 60.4743 20.7326 60.7464 20.7265C61.9217 20.7187 62.7143 20.8142 63.6073 21.5968C63.7178 21.7303 63.7178 21.7303 63.8306 21.8665C63.9063 21.9551 63.9821 22.0437 64.0602 22.1351C64.4467 22.696 64.5655 23.1835 64.5579 23.8601C64.5571 23.9998 64.5562 24.1394 64.5553 24.2833C64.553 24.4276 64.5507 24.5718 64.5483 24.7205C64.5471 24.8673 64.5459 25.0142 64.5446 25.1656C64.5414 25.5271 64.5369 25.8885 64.5312 26.25C64.7805 26.3063 64.7805 26.3063 65.0349 26.3637C66.1781 26.6509 67.2388 27.3565 67.9492 28.3008C68.4638 29.1867 68.922 30.0288 68.9246 31.0681C68.9252 31.1835 68.9258 31.2989 68.9264 31.4178C68.9264 31.607 68.9264 31.607 68.9264 31.8C68.9269 31.9345 68.9274 32.069 68.9279 32.2076C68.9294 32.6596 68.9299 33.1117 68.9304 33.5637C68.9313 33.8873 68.9322 34.2109 68.9332 34.5345C68.9358 35.5066 68.9372 36.4787 68.9385 37.4507C68.9391 37.9089 68.9398 38.3671 68.9405 38.8253C68.9428 40.3491 68.9448 41.873 68.9458 43.3969C68.9461 43.7922 68.9463 44.1875 68.9466 44.5828C68.9467 44.681 68.9467 44.7792 68.9468 44.8805C68.9479 46.4708 68.9514 48.0611 68.9558 49.6514C68.9604 51.2855 68.9628 52.9196 68.9633 54.5537C68.9636 55.4707 68.9648 56.3876 68.9682 57.3045C68.9714 58.1676 68.972 59.0306 68.9706 59.8937C68.9705 60.2099 68.9714 60.5261 68.9733 60.8423C68.9852 62.972 68.9499 64.6875 67.4023 66.3086C65.8826 67.7593 64.2475 67.8932 62.2446 67.8819C61.9996 67.8826 61.7547 67.8834 61.5097 67.8845C60.8394 67.8868 60.1693 67.8857 59.499 67.884C58.7751 67.8827 58.0511 67.8847 57.3272 67.8862C55.9101 67.8886 54.493 67.8881 53.0759 67.8865C51.9241 67.8852 50.7722 67.8851 49.6204 67.8857C49.4563 67.8858 49.2923 67.8858 49.1233 67.8859C48.79 67.8861 48.4568 67.8863 48.1235 67.8865C44.9997 67.888 41.8759 67.8862 38.7521 67.8833C36.0727 67.8808 33.3933 67.8813 30.7139 67.8838C27.6012 67.8867 24.4884 67.8879 21.3757 67.8862C21.0437 67.886 20.7116 67.8858 20.3796 67.8857C20.1346 67.8855 20.1346 67.8855 19.8846 67.8854C18.7343 67.8849 17.5841 67.8857 16.4338 67.887C15.0318 67.8886 13.6297 67.8881 12.2276 67.8852C11.5125 67.8838 10.7973 67.8832 10.0822 67.885C9.42709 67.8867 8.77204 67.8858 8.11694 67.8829C7.88042 67.8823 7.64389 67.8826 7.40737 67.8839C5.52139 67.8937 4.01188 67.6587 2.59765 66.3086C0.936499 64.5685 1.01426 62.658 1.02298 60.3902C1.02224 60.0664 1.02127 59.7427 1.02008 59.4189C1.01759 58.5427 1.01855 57.6665 1.02029 56.7902C1.02126 56.2423 1.02108 55.6944 1.02057 55.1464C1.02048 55.0552 1.0204 54.964 1.02031 54.8701C1.02014 54.6848 1.01996 54.4995 1.01978 54.3142C1.01822 52.58 1.02001 50.8457 1.02295 49.1115C1.02539 47.626 1.02497 46.1405 1.02245 44.655C1.01952 42.9266 1.01837 41.1982 1.02005 39.4698C1.02022 39.2852 1.0204 39.1007 1.02057 38.9161C1.02065 38.8253 1.02073 38.7345 1.02082 38.6409C1.02129 38.0035 1.02047 37.3661 1.01921 36.7287C1.01763 35.8695 1.01873 35.0104 1.02189 34.1513C1.02261 33.8366 1.0224 33.522 1.02119 33.2073C1.01378 31.0836 1.0548 29.3701 2.59765 27.7539C3.41699 26.9717 4.25944 26.5849 5.33203 26.25C5.33287 26.1241 5.33287 26.1241 5.33373 25.9956C5.37146 22.7806 5.37146 22.7806 6.15234 21.875C7.23518 20.8425 8.22247 20.7318 9.67285 20.7385C9.93592 20.7397 9.93592 20.7397 10.2043 20.7409C14.2791 20.7807 18.4339 21.3177 22.4219 22.1484C22.4155 21.9409 22.4155 21.9409 22.4091 21.7292C22.4791 18.79 24.4241 16.08 26.3937 14.0692C28.142 12.4098 30.5593 11.251 32.9492 10.9375C33.0625 10.9225 33.1759 10.9075 33.2926 10.8921C36.8748 10.4807 40.4548 11.4348 43.2031 13.8086ZM27.9009 15.9691C25.8119 18.0545 24.5775 20.6342 24.5496 23.6096C24.5928 26.4562 25.7298 29.0469 27.7539 31.0352C27.9321 31.2022 28.111 31.3684 28.2906 31.534C28.3864 31.6223 28.4822 31.7107 28.581 31.8017C28.7707 31.9752 28.9616 32.1474 29.1539 32.3181C30.601 33.6323 31.4225 35.2886 31.6301 37.2259C31.7057 38.2017 31.7057 38.2017 32.2058 38.999C32.637 39.2185 32.8556 39.2792 33.3204 39.3216C33.4303 39.3321 33.5403 39.3427 33.6536 39.3535C33.7787 39.3641 33.7787 39.3641 33.9062 39.375C33.9376 38.3682 33.9591 37.3614 33.9738 36.3542C33.98 36.0121 33.9884 35.67 33.9991 35.3279C34.0141 34.8344 34.021 34.3412 34.0264 33.8475C34.0328 33.6961 34.0391 33.5446 34.0457 33.3886C34.0462 32.4969 33.9076 32.0348 33.3045 31.3629C33.0972 31.1602 32.8878 30.9595 32.6758 30.7617C32.4739 30.5217 32.2739 30.2801 32.0776 30.0354C31.6887 29.5545 31.2949 29.0791 30.8927 28.6094C30.3067 27.9241 29.7305 27.2316 29.1724 26.5234C29.0606 26.3824 28.9489 26.2415 28.8338 26.0962C28.5798 25.7116 28.4723 25.4747 28.4375 25.0195C28.5486 24.6435 28.5486 24.6435 28.7109 24.3359C29.1506 24.1161 29.6302 24.1779 30.1133 24.1772C30.2884 24.1762 30.2884 24.1762 30.4671 24.1751C30.8542 24.1731 31.2413 24.1722 31.6285 24.1714C31.8969 24.1707 32.1652 24.1699 32.4336 24.1691C32.9967 24.1676 33.5597 24.1668 34.1228 24.1664C34.8452 24.1656 35.5676 24.1623 36.2901 24.1584C36.8445 24.1559 37.3989 24.1552 37.9533 24.155C38.2197 24.1546 38.4861 24.1535 38.7525 24.1517C39.1247 24.1493 39.4968 24.1496 39.869 24.1505C39.9796 24.1492 40.0902 24.148 40.2041 24.1467C40.9434 24.1522 40.9434 24.1522 41.287 24.3758C41.5445 24.8092 41.5427 25.2296 41.4258 25.7031C41.2598 25.9477 41.2598 25.9477 41.0338 26.1939C40.947 26.2886 40.8603 26.3832 40.771 26.4807C40.1885 27.09 39.5963 27.6889 38.999 28.2837C38.8685 28.4147 38.738 28.5457 38.6076 28.6768C38.4837 28.8005 38.3598 28.9242 38.2321 29.0517C38.1201 29.1636 38.008 29.2754 37.8926 29.3907C37.4927 29.7666 37.2707 29.9323 36.7175 29.9927C36.2305 29.9414 36.2305 29.9414 35.8972 29.7278C35.5877 29.2449 35.5799 29.0033 35.6836 28.4375C35.9581 28.0273 36.29 27.6896 36.6406 27.3437C36.7319 27.2523 36.8232 27.1608 36.9173 27.0666C37.0842 26.9 37.2523 26.7347 37.4219 26.571C37.6134 26.4127 37.6134 26.4127 37.5977 26.25C35.7478 26.25 33.898 26.25 31.9922 26.25C32.5966 27.0559 33.2099 27.8144 33.8779 28.5627C34.0301 28.7355 34.1786 28.9114 34.3242 29.0897C34.5914 29.4098 34.5914 29.4098 34.9468 29.7093C36.1723 30.9436 36.1246 32.2877 36.1271 33.9641C36.1253 34.3417 36.12 34.7191 36.1143 35.0966C36.1085 35.5797 36.1106 36.0627 36.1119 36.5458C36.1134 37.489 36.1064 38.4319 36.0937 39.375C36.2891 39.3584 36.4844 39.3403 36.6796 39.3216C36.7884 39.3117 36.8971 39.3018 37.0092 39.2915C37.403 39.225 37.6974 39.0913 37.9886 38.8137C38.2769 38.3348 38.2984 37.798 38.3624 37.251C38.6171 35.0792 39.5554 33.2215 41.272 31.864C41.4488 31.7252 41.4488 31.7252 41.6293 31.5836C43.8049 29.8411 45.0322 27.3514 45.3906 24.6094C45.626 21.504 44.6094 18.7945 42.6141 16.4447C40.6948 14.4026 38.1348 13.3084 35.3546 13.1298C32.6065 13.1029 29.895 14.0555 27.9009 15.9691ZM7.96386 23.4302C7.64586 23.8436 7.63912 24.2999 7.63866 24.8069C7.63822 24.9286 7.63778 25.0502 7.63732 25.1755C7.63754 25.3086 7.63774 25.4416 7.63796 25.5787C7.63765 25.7205 7.63735 25.8623 7.63703 26.0084C7.63616 26.485 7.63627 26.9616 7.63638 27.4382C7.63598 27.7793 7.63551 28.1204 7.635 28.4615C7.63391 29.2928 7.63348 30.124 7.63341 30.9552C7.63334 31.6308 7.63306 32.3063 7.63263 32.9819C7.63142 34.8969 7.63079 36.8119 7.63089 38.7269C7.6309 38.8301 7.63091 38.9333 7.63091 39.0397C7.63092 39.1431 7.63092 39.2464 7.63093 39.3529C7.63098 41.0287 7.62968 42.7044 7.62775 44.3802C7.62579 46.1005 7.62484 47.8208 7.62496 49.5411C7.625 50.5071 7.62462 51.473 7.62315 52.439C7.62178 53.3472 7.62182 54.2553 7.62282 55.1635C7.62296 55.4972 7.62263 55.8309 7.62181 56.1647C7.62076 56.6194 7.62138 57.0741 7.62244 57.5289C7.62174 57.6617 7.62104 57.7944 7.62031 57.9312C7.6241 58.6655 7.64697 59.2496 8.11767 59.8486C8.63984 60.2503 9.31567 60.1877 9.94789 60.2102C10.1657 60.2192 10.3836 60.2283 10.6014 60.2376C10.716 60.2424 10.8306 60.2471 10.9487 60.252C17.0816 60.5155 23.1218 61.5202 29.0015 63.3008C29.0908 63.3278 29.1801 63.3547 29.2721 63.3825C30.8341 63.8572 32.3637 64.4015 33.9062 64.9414C33.9062 58.6701 33.9062 52.3988 33.9062 45.9375C33.3648 45.8924 32.8234 45.8473 32.2656 45.8008C31.8555 45.3906 31.8555 45.3906 31.801 45.1257C31.802 45.0327 31.8031 44.9396 31.8042 44.8437C31.8031 44.7507 31.8021 44.6576 31.801 44.5618C31.872 44.2163 31.9942 44.1077 32.2656 43.8867C32.6824 43.8459 33.0707 43.8293 33.4875 43.8322C33.6074 43.8318 33.7272 43.8315 33.8507 43.8311C34.104 43.8308 34.3573 43.8315 34.6105 43.8332C34.9985 43.8354 35.3864 43.8333 35.7744 43.8306C36.0204 43.8309 36.2664 43.8314 36.5124 43.8322C36.6287 43.8314 36.7449 43.8306 36.8646 43.8297C37.6763 43.8394 37.6763 43.8394 37.9699 44.0786C38.1873 44.3504 38.1997 44.4989 38.1958 44.8437C38.1969 44.9368 38.1979 45.0299 38.199 45.1257C38.1445 45.3906 38.1445 45.3906 37.7344 45.8008C37.193 45.8459 36.6516 45.891 36.0937 45.9375C36.0937 52.2088 36.0937 58.4801 36.0937 64.9414C37.4021 64.4902 38.7105 64.0391 40.0586 63.5742C40.7652 63.3536 41.4651 63.1382 42.1777 62.9419C42.2649 62.9177 42.3521 62.8935 42.4419 62.8686C48.1746 61.2856 54.0552 60.3471 60.0052 60.2149C60.1402 60.211 60.2751 60.2072 60.4142 60.2032C60.5329 60.2007 60.6517 60.1981 60.774 60.1955C61.3726 60.1262 61.8255 59.9456 62.207 59.4727C62.2684 59.1863 62.2684 59.1863 62.259 58.8643C62.2608 58.6764 62.2608 58.6764 62.2625 58.4847C62.2613 58.278 62.2613 58.278 62.26 58.0671C62.2608 57.9209 62.2615 57.7747 62.2623 57.624C62.2642 57.1315 62.2632 56.6391 62.2623 56.1466C62.263 55.7945 62.264 55.4424 62.2651 55.0903C62.2675 54.2318 62.2676 53.3733 62.2669 52.5148C62.2663 51.8171 62.2665 51.1195 62.2672 50.4218C62.2673 50.3226 62.2674 50.2234 62.2675 50.1212C62.2678 49.9197 62.268 49.7182 62.2682 49.5167C62.2701 47.6258 62.2693 45.735 62.2677 43.8442C62.2664 42.1135 62.2682 40.3829 62.2714 38.6522C62.2748 36.8761 62.2761 35.1 62.2752 33.324C62.2747 32.3264 62.275 31.3289 62.2774 30.3314C62.2796 29.3936 62.279 28.4558 62.2764 27.518C62.2759 27.1732 62.2763 26.8284 62.2777 26.4836C62.2795 26.0141 62.278 25.5447 62.2756 25.0752C62.2769 24.9377 62.2782 24.8002 62.2795 24.6585C62.2808 23.9278 62.2808 23.9278 61.9493 23.2965C61.0926 22.7306 59.9422 23.0004 58.9685 23.0627C58.8201 23.072 58.8201 23.072 58.6687 23.0814C55.6147 23.2749 52.5812 23.6437 49.5605 24.1309C49.3072 24.1697 49.3072 24.1697 49.0488 24.2093C48.8948 24.2356 48.7408 24.2618 48.5821 24.2889C48.4471 24.3112 48.312 24.3335 48.1728 24.3565C47.8351 24.4434 47.8351 24.4434 47.6747 24.7288C47.534 25.1524 47.4752 25.5785 47.4072 26.0193C46.8276 29.3754 44.8321 32.0556 42.1948 34.137C41.008 35.1825 40.6428 36.5548 40.4858 38.0933C40.3549 39.1862 40.0608 40.0115 39.1988 40.7294C38.0223 41.5418 36.9009 41.4649 35.5203 41.4736C35.2606 41.4759 35.0009 41.4796 34.7411 41.4849C31.7633 41.5446 31.7633 41.5446 30.6419 40.5042C29.8784 39.705 29.6688 38.9195 29.5483 37.8455C29.2648 35.5128 28.0943 34.3522 26.4532 32.8307C24.1051 30.6485 22.6902 27.8297 22.4219 24.6094C21.1647 24.3021 19.9065 24.0572 18.6279 23.8574C18.5351 23.8429 18.4423 23.8283 18.3466 23.8133C16.1594 23.474 13.9646 23.2667 11.7578 23.1055C11.6043 23.0942 11.4508 23.0829 11.2926 23.0712C10.8895 23.0429 10.4864 23.0176 10.083 22.9944C9.96912 22.9871 9.85524 22.9798 9.7379 22.9724C9.03454 22.9393 8.52429 22.9898 7.96386 23.4302ZM64.5312 28.7109C64.5312 28.8703 64.5311 29.0297 64.531 29.1939C64.5291 32.9808 64.5237 36.7676 64.5139 40.5545C64.5127 41.0209 64.5115 41.4874 64.5104 41.9539C64.5102 42.0468 64.5099 42.1396 64.5097 42.2353C64.506 43.7373 64.5048 45.2394 64.5044 46.7414C64.504 48.2836 64.501 49.8257 64.4956 51.3679C64.4927 52.2337 64.491 53.0995 64.4921 53.9654C64.4932 54.7807 64.491 55.5961 64.4864 56.4114C64.4853 56.7103 64.4853 57.0091 64.4866 57.3079C64.4983 60.3167 64.4983 60.3167 63.7109 61.25C62.4394 62.3846 60.9215 62.3774 59.2896 62.4498C53.3686 62.7217 47.186 63.5474 41.5625 65.4883C41.5625 65.5334 41.5625 65.5785 41.5625 65.625C44.3934 65.6314 47.2243 65.6362 50.0552 65.6392C51.3697 65.6406 52.6842 65.6425 53.9987 65.6456C55.1446 65.6484 56.2906 65.6501 57.4366 65.6507C58.0432 65.6511 58.6497 65.6519 59.2562 65.6539C59.8278 65.6558 60.3993 65.6563 60.9708 65.6559C61.1799 65.656 61.3891 65.6565 61.5982 65.6576C63.6732 65.6994 63.6732 65.6994 65.4883 64.8047C66.5901 63.6949 66.7398 62.6079 66.737 61.0907C66.7375 60.9034 66.7375 60.9034 66.738 60.7123C66.7388 60.2945 66.7387 59.8767 66.7386 59.4589C66.739 59.159 66.7395 58.8592 66.74 58.5593C66.7412 57.7452 66.7415 56.9311 66.7416 56.117C66.7417 55.6083 66.742 55.0995 66.7424 54.5908C66.7436 52.9071 66.7442 51.2235 66.7441 49.5399C66.7441 49.4492 66.7441 49.3585 66.7441 49.265C66.7441 49.1288 66.7441 49.1288 66.7441 48.9899C66.744 47.5188 66.7453 46.0476 66.7472 44.5765C66.7492 43.0644 66.7501 41.5524 66.75 40.0403C66.75 39.192 66.7504 38.3437 66.7518 37.4954C66.7532 36.6974 66.7532 35.8994 66.7522 35.1015C66.752 34.809 66.7524 34.5165 66.7532 34.224C66.7542 33.8239 66.7536 33.4239 66.7525 33.0238C66.7536 32.8513 66.7536 32.8513 66.7547 32.6753C66.7489 31.6828 66.6474 30.6749 66.0864 29.8303C66.0254 29.7336 65.9645 29.6368 65.9016 29.5371C65.6248 29.2576 65.411 29.1362 65.0608 28.9669C64.9618 28.9187 64.8628 28.8704 64.7608 28.8207C64.685 28.7845 64.6093 28.7483 64.5312 28.7109ZM4.28474 29.4832C3.34549 30.5401 3.26046 31.6033 3.26296 32.9718C3.26265 33.0966 3.26235 33.2215 3.26203 33.3502C3.26116 33.768 3.26127 34.1858 3.26138 34.6036C3.26098 34.9035 3.26051 35.2033 3.26 35.5032C3.25879 36.3173 3.25846 37.1314 3.25838 37.9455C3.25828 38.4542 3.25799 38.963 3.25763 39.4717C3.25643 41.1554 3.25579 42.839 3.25589 44.5226C3.2559 44.6133 3.25591 44.704 3.25591 44.7975C3.25592 44.8883 3.25592 44.9791 3.25593 45.0726C3.25598 46.5437 3.25468 48.0149 3.25275 49.486C3.25078 50.9981 3.24986 52.5101 3.24996 54.0222C3.24999 54.8705 3.2496 55.7188 3.24815 56.5671C3.24683 57.3651 3.24682 58.1631 3.24782 58.961C3.24796 59.2535 3.24764 59.546 3.24681 59.8385C3.24575 60.2386 3.24639 60.6386 3.24744 61.0387C3.24639 61.2112 3.24639 61.2112 3.24531 61.3872C3.2523 62.5938 3.43145 63.7301 4.23828 64.668C5.51023 65.7622 7.12767 65.664 8.71024 65.656C8.92594 65.656 9.14163 65.656 9.35733 65.6562C9.93971 65.6562 10.5221 65.6546 11.1045 65.6527C11.7143 65.651 12.3241 65.6508 12.9339 65.6505C14.0872 65.6497 15.2405 65.6474 16.3939 65.6447C17.7075 65.6416 19.0211 65.6401 20.3347 65.6388C23.0357 65.6359 25.7366 65.6311 28.4375 65.625C27.7777 65.1851 27.0198 65.0502 26.2585 64.8474C26.1243 64.8116 26.1243 64.8116 25.9874 64.7751C20.7354 63.3853 15.2914 62.5566 9.86057 62.4024C8.49944 62.354 7.33052 62.1793 6.28906 61.25C5.2745 60.0475 5.50895 58.3357 5.51531 56.8661C5.51415 56.5588 5.5127 56.2515 5.51096 55.9442C5.50712 55.1127 5.50745 54.2812 5.50854 53.4497C5.50897 52.5797 5.50555 51.7097 5.50254 50.8397C5.498 49.3803 5.49583 47.921 5.49548 46.4616C5.49512 44.959 5.49332 43.4565 5.48961 41.9539C5.48938 41.8611 5.48915 41.7684 5.48891 41.6728C5.48776 41.2075 5.48657 40.7421 5.48537 40.2768C5.47548 36.4215 5.47055 32.5662 5.46875 28.7109C5.0465 28.7109 4.57013 29.1998 4.28474 29.4832Z" fill="#333333"/><path d="M58.7891 50.586C59.1241 51.0885 59.1591 51.5058 59.0625 52.0899C58.7424 52.5357 58.4934 52.6713 57.9688 52.7735C57.6836 52.8041 57.398 52.8298 57.1121 52.8525C56.939 52.867 56.7659 52.8815 56.5875 52.8965C56.4953 52.9042 56.4031 52.9119 56.3081 52.9199C52.2046 53.2696 48.1337 53.9357 44.157 55.0181C44.052 55.0465 43.9471 55.075 43.839 55.1043C43.3238 55.2443 42.8096 55.3869 42.2964 55.5341C42.108 55.5865 41.9196 55.6388 41.7313 55.691C41.4843 55.7616 41.4843 55.7616 41.2323 55.8336C40.6015 55.9422 39.9553 55.9595 39.3835 55.6275C39.1531 55.2208 39.1176 54.8784 39.1016 54.4141C39.2297 54.0381 39.2297 54.0381 39.5117 53.7305C44.4717 51.6056 50.3921 50.9597 55.73 50.4578C55.8294 50.448 55.9289 50.4381 56.0314 50.428C56.3142 50.4005 56.5972 50.3756 56.8803 50.3515C57.0414 50.3372 57.2024 50.323 57.3683 50.3083C57.893 50.3131 58.2987 50.4007 58.7891 50.586Z" fill="#333333"/><path d="M18.9486 50.9351C22.4064 51.4754 25.8521 52.2129 29.2066 53.2178C29.306 53.2464 29.4054 53.2751 29.5078 53.3046C30.1123 53.499 30.4256 53.7388 30.7617 54.2773C30.852 54.819 30.8117 55.0227 30.5054 55.4822C30.2149 55.7813 30.2149 55.7813 29.9414 55.918C28.8874 55.8595 27.9263 55.5796 26.9165 55.2856C22.4618 54.0289 17.9665 53.1494 13.3512 52.7837C12.5146 52.7123 11.8116 52.6434 11.0742 52.2266C10.8603 51.7987 10.8422 51.3227 10.9375 50.8594C12.0795 49.2453 17.247 50.6748 18.9486 50.9351Z" fill="#333333"/><path d="M58.8451 45.0868C59.1372 45.4951 59.1409 45.7371 59.1165 46.2243C59.0333 46.6254 58.8422 46.798 58.5156 47.0313C58.0885 47.1737 57.7347 47.2084 57.2862 47.2422C52.571 47.6248 47.8757 48.3603 43.3228 49.669C43.2318 49.695 43.1409 49.7209 43.0472 49.7477C42.6124 49.8722 42.1791 49.9999 41.7468 50.133C40.3058 50.5574 40.3058 50.5574 39.5117 50.1758C39.1323 49.7608 39.0992 49.5607 39.1187 48.9966C39.2413 48.5237 39.281 48.4142 39.6484 48.125C39.9813 47.9933 39.9813 47.9933 40.3817 47.8794C40.5319 47.8363 40.682 47.7931 40.8367 47.7487C41.0001 47.7037 41.1635 47.6587 41.3318 47.6123C41.5882 47.5409 41.5882 47.5409 41.8498 47.4679C56.5632 43.404 56.5632 43.404 58.8451 45.0868Z" fill="#333333"/><path d="M28.5144 42.2034C28.6494 42.2407 28.7843 42.278 28.9234 42.3165C29.5878 42.5111 30.1411 42.6801 30.625 43.2031C30.7323 43.8792 30.7258 44.1375 30.3601 44.7156C29.781 45.082 29.3555 44.9695 28.7109 44.8437C28.0354 44.6759 27.3653 44.4904 26.6947 44.3037C22.6025 43.1716 18.4065 42.371 14.1702 42.0394C13.9548 42.0223 13.9548 42.0223 13.7351 42.0049C13.4627 41.9841 13.19 41.9651 12.9173 41.9482C12.2159 41.8974 11.6802 41.818 11.0742 41.4258C10.9152 41.1077 10.9103 40.8998 10.9033 40.5457C10.898 40.3852 10.898 40.3852 10.8926 40.2215C10.9485 39.8485 11.0513 39.7381 11.3477 39.5117C15.8253 38.0192 24.2573 40.9993 28.5144 42.2034Z" fill="#333333"/><path d="M57.3551 39.4775C57.9284 39.4535 58.2877 39.4706 58.8147 39.7082C59.1276 40.1506 59.1442 40.4545 59.1533 40.9857C59.0163 41.4433 58.7747 41.5767 58.3789 41.8359C58.0124 41.9103 57.6882 41.9554 57.3188 41.9801C57.2148 41.9892 57.1108 41.9983 57.0037 42.0077C56.7792 42.0273 56.5547 42.046 56.3301 42.0638C55.7264 42.1125 55.1237 42.1707 54.5209 42.2295C54.3975 42.2415 54.2741 42.2535 54.147 42.2659C50.3829 42.6436 46.6501 43.4307 43.0077 44.4384C42.8449 44.4833 42.6822 44.5283 42.5145 44.5746C42.2078 44.6604 41.9015 44.7479 41.5958 44.8376C40.3079 45.2027 40.3079 45.2027 39.6484 44.9804C39.3152 44.6899 39.3152 44.6899 39.1016 44.2969C39.1016 43.7729 39.1358 43.4676 39.4667 43.0551C39.8499 42.7397 40.1643 42.6373 40.6418 42.504C40.8148 42.4552 40.9877 42.4063 41.166 42.356C41.3551 42.3049 41.5442 42.254 41.7334 42.2033C41.8789 42.1636 41.8789 42.1636 42.0273 42.123C47.0424 40.7537 52.1678 39.8468 57.3551 39.4775Z" fill="#333333"/><path d="M18.9486 45.4663C21.0459 45.7941 23.1166 46.2076 25.1819 46.698C25.2878 46.7231 25.3938 46.7482 25.503 46.774C26.2099 46.9427 26.9143 47.1199 27.6172 47.3047C27.7768 47.3464 27.7768 47.3464 27.9397 47.389C28.2596 47.4737 28.5785 47.5614 28.8973 47.6502C28.9942 47.6759 29.0911 47.7016 29.1909 47.728C29.7597 47.8911 30.1191 48.0676 30.4883 48.5352C30.588 48.9104 30.5647 49.2494 30.4883 49.6289C30.2292 50.0175 30.0489 50.1411 29.6071 50.2837C28.8839 50.3266 28.2703 50.1042 27.583 49.8938C23.7658 48.7787 19.8828 48.0212 15.9363 47.5439C15.8424 47.5326 15.7486 47.5212 15.6519 47.5095C14.5697 47.38 13.4901 47.2732 12.402 47.2087C11.8858 47.152 11.5245 47.0136 11.0742 46.7578C10.8603 46.33 10.8422 45.854 10.9375 45.3906C12.0795 43.7766 17.247 45.206 18.9486 45.4663Z" fill="#333333"/><path d="M13.313 31.8042C13.472 31.8162 13.631 31.8282 13.7948 31.8406C15.1431 31.9512 16.485 32.1056 17.8263 32.281C18.0524 32.3105 18.2784 32.3396 18.5046 32.3682C18.8247 32.409 19.1445 32.452 19.4643 32.4958C19.5597 32.5078 19.6551 32.5198 19.7534 32.5321C20.3182 32.6128 20.7312 32.7455 21.1914 33.0859C21.4053 33.5138 21.4234 33.9898 21.3281 34.4531C21.0467 34.8035 20.8863 34.9809 20.4377 35.0624C19.3402 35.0279 18.2698 34.904 17.1838 34.7437C15.7466 34.5391 14.3144 34.3697 12.8645 34.2852C12.0431 34.2283 11.5361 34.0947 10.9375 33.4961C10.8608 32.5448 10.8608 32.5448 11.1169 32.0691C11.7141 31.5162 12.5661 31.7477 13.313 31.8042Z" fill="#333333"/><path d="M46.3477 5.60549C46.6895 5.81057 46.6895 5.81057 46.8945 6.15237C46.9776 6.60547 47.0103 6.81778 46.8945 7.24612C46.719 7.49676 46.719 7.49676 46.4865 7.74867C46.3564 7.89073 46.3564 7.89073 46.2236 8.03566C46.082 8.18624 46.082 8.18624 45.9375 8.33987C45.8412 8.44431 45.745 8.54876 45.6458 8.65637C45.3397 8.985 45.0284 9.30787 44.7156 9.63015C44.6117 9.74145 44.5078 9.85274 44.4008 9.96741C43.5325 10.8564 43.5325 10.8564 42.8725 10.9487C42.1855 10.933 42.1855 10.933 41.8359 10.6641C41.4857 10.1387 41.4704 9.92115 41.5625 9.2969C41.7346 9.0521 41.7346 9.0521 41.9663 8.79809C42.053 8.70284 42.1398 8.6076 42.2292 8.50947C42.7419 7.96854 43.2645 7.43853 43.7927 6.91287C43.9035 6.80157 44.0143 6.69028 44.1284 6.57561C44.2342 6.46995 44.34 6.3643 44.4491 6.25544C44.5447 6.16002 44.6402 6.0646 44.7387 5.96628C45.2151 5.52475 45.7245 5.52052 46.3477 5.60549Z" fill="#4A3AFF"/><path d="M12.9274 27.2738C13.0284 27.2824 13.1293 27.2911 13.2334 27.3C13.4469 27.3186 13.6605 27.3375 13.8739 27.3569C14.1994 27.3863 14.5249 27.4136 14.8505 27.4407C15.0583 27.459 15.266 27.4774 15.4738 27.496C15.5706 27.5039 15.6675 27.5119 15.7673 27.5202C16.4257 27.5822 16.9876 27.6599 17.4744 28.1299C17.6929 28.544 17.7028 28.7949 17.6367 29.2578C17.4135 29.622 17.4135 29.622 17.0898 29.9414C16.4165 30.0728 15.7216 29.9862 15.0391 29.9414C14.9103 29.9337 14.7816 29.9261 14.6489 29.9182C14.229 29.892 13.8095 29.862 13.3899 29.8303C13.2549 29.8208 13.12 29.8113 12.9809 29.8015C12.2633 29.7397 11.6926 29.661 11.0742 29.2578C10.8558 28.821 10.868 28.3648 10.9375 27.8906C11.4894 27.1484 12.0764 27.1967 12.9274 27.2738Z" fill="#333333"/><path d="M24.4559 5.52703C24.8113 5.6231 24.9823 5.76618 25.2529 6.01456C25.395 6.1445 25.395 6.1445 25.5399 6.27708C26.0545 6.76676 26.5608 7.26374 27.0618 7.76733C27.1665 7.87158 27.2713 7.97582 27.3793 8.08323C27.4788 8.18289 27.5782 8.28255 27.6807 8.38524C27.7704 8.47509 27.8601 8.56494 27.9525 8.65751C28.3341 9.07093 28.3468 9.42722 28.3398 9.98421C28.3008 10.2539 28.3008 10.2539 28.0615 10.5872C27.572 10.9271 27.572 10.9271 27.207 10.9375C26.4876 10.6796 26.0469 10.3915 25.5034 9.83894C25.4383 9.77341 25.3732 9.70788 25.3062 9.64036C25.1011 9.43312 24.898 9.22403 24.6948 9.01489C24.5556 8.87405 24.4162 8.73332 24.2767 8.59272C23.1195 7.41948 23.1195 7.41948 23.0627 6.71631C23.0708 6.31235 23.0965 6.1673 23.3105 5.81055C23.6963 5.57909 24.0047 5.5029 24.4559 5.52703Z" fill="#4A3AFF"/><path d="M35 1.02539C35.0902 1.02398 35.1805 1.02257 35.2734 1.02112C35.6909 1.13202 35.8328 1.2947 36.0937 1.64062C36.1759 2.05042 36.1704 2.45425 36.1664 2.87109C36.1669 2.99041 36.1674 3.10972 36.168 3.23265C36.1683 3.48455 36.1673 3.73645 36.165 3.98834C36.1621 4.3737 36.165 4.7587 36.1685 5.14404C36.1682 5.389 36.1675 5.63395 36.1664 5.87891C36.1675 5.99399 36.1686 6.10907 36.1697 6.22765C36.157 7.02559 36.157 7.02559 35.8329 7.45518C35.5233 7.67285 35.3745 7.73046 35 7.72461C34.8646 7.72672 34.8646 7.72672 34.7266 7.72888C34.3091 7.61798 34.1672 7.4553 33.9062 7.10938C33.8241 6.69958 33.8296 6.29575 33.8336 5.87891C33.8331 5.75959 33.8326 5.64028 33.832 5.51735C33.8317 5.26545 33.8327 5.01355 33.835 4.76166C33.8379 4.3763 33.835 3.9913 33.8315 3.60596C33.8318 3.361 33.8325 3.11605 33.8336 2.87109C33.8325 2.75601 33.8314 2.64093 33.8303 2.52235C33.843 1.72441 33.843 1.72441 34.1671 1.29482C34.4767 1.07715 34.6255 1.01954 35 1.02539Z" fill="#4A3AFF"/></svg>