<svg xmlns="http://www.w3.org/2000/svg" width="70" height="70" viewBox="0 0 70 70" fill="none"><path d="M2.30475 11.6027C2.51651 11.6018 2.51651 11.6018 2.73255 11.6009C2.96699 11.6009 2.96699 11.6009 3.20617 11.601C3.37127 11.6005 3.53637 11.6 3.70648 11.5995C4.16622 11.5982 4.62595 11.5976 5.08568 11.5972C5.58094 11.5967 6.07619 11.5954 6.57145 11.5942C7.7681 11.5915 8.96476 11.5901 10.1614 11.5889C10.7245 11.5883 11.2876 11.5875 11.8508 11.5868C13.7219 11.5845 15.593 11.5825 17.4641 11.5815C17.9499 11.5813 18.4356 11.581 18.9213 11.5807C19.1024 11.5806 19.1024 11.5806 19.2872 11.5805C21.2442 11.5794 23.2012 11.5759 25.1582 11.5715C27.166 11.567 29.1738 11.5645 31.1816 11.5641C32.3095 11.5638 33.4374 11.5626 34.5653 11.5591C35.5255 11.5561 36.4858 11.555 37.4461 11.5564C37.9362 11.557 38.4264 11.5567 38.9166 11.5541C39.4474 11.5512 39.9782 11.5526 40.5091 11.5544C40.6648 11.5529 40.8205 11.5514 40.9809 11.5499C41.1937 11.5516 41.1937 11.5516 41.4108 11.5534C41.5334 11.5533 41.656 11.5532 41.7823 11.553C42.2161 11.6433 42.3812 11.8284 42.6562 12.168C42.7257 12.4851 42.7257 12.4851 42.7272 12.841C42.73 13.044 42.73 13.044 42.733 13.2511C42.7323 13.3988 42.7316 13.5464 42.7309 13.6984C42.7323 13.8545 42.7337 14.0106 42.7352 14.1715C42.7392 14.6878 42.7394 15.2041 42.7396 15.7205C42.7416 16.0784 42.7439 16.4362 42.7464 16.7941C42.7519 17.64 42.7547 18.4858 42.7565 19.3317C42.7587 20.2949 42.7639 21.258 42.7695 22.2212C42.7807 24.2021 42.7881 26.1831 42.793 28.1641C42.9478 27.9664 42.9478 27.9664 43.1057 27.7648C43.2424 27.5904 43.3792 27.416 43.516 27.2416C43.5839 27.1549 43.6517 27.0683 43.7216 26.979C44.179 26.3961 44.6457 25.8244 45.1343 25.2673C45.6294 24.6972 46.1141 24.1217 46.5869 23.5327C46.9537 23.0854 47.3222 22.6418 47.7148 22.2168C47.829 22.092 47.829 22.092 47.9455 21.9647C48.8927 21.2864 49.9789 21.2686 51.1037 21.2751C51.3387 21.274 51.3387 21.274 51.5784 21.2729C52.0934 21.2711 52.6083 21.2723 53.1232 21.2737C53.483 21.2734 53.8427 21.273 54.2024 21.2725C54.9553 21.2717 55.7081 21.2727 56.461 21.2747C57.3283 21.2769 58.1955 21.2762 59.0627 21.2739C59.9008 21.2718 60.7389 21.272 61.577 21.2732C61.9319 21.2735 62.2868 21.2732 62.6417 21.2722C63.1387 21.2712 63.6356 21.2728 64.1325 21.2751C64.2778 21.2742 64.4231 21.2734 64.5728 21.2725C66.0711 21.2852 67.1151 21.5903 68.204 22.6382C68.8073 23.321 69.1945 24.1224 69.1998 25.0431C69.2013 25.2173 69.2013 25.2173 69.2028 25.395C69.2031 25.522 69.2035 25.649 69.2039 25.7798C69.2048 25.9139 69.2057 26.048 69.2066 26.1862C69.2093 26.6308 69.2109 27.0754 69.2123 27.52C69.2128 27.6719 69.2134 27.8239 69.2139 27.9804C69.2168 28.785 69.2188 29.5895 69.22 30.3941C69.2215 31.2239 69.2262 32.0536 69.2317 32.8834C69.2353 33.5224 69.2364 34.1614 69.2369 34.8004C69.2375 35.1062 69.2391 35.412 69.2417 35.7178C69.245 36.1468 69.2449 36.5756 69.2439 37.0047C69.2466 37.1926 69.2466 37.1926 69.2492 37.3844C69.2398 38.5651 68.8444 39.5253 68.0469 40.3999C67.2641 41.0864 66.3702 41.3083 65.3516 41.3062C65.1824 41.3065 65.0132 41.3069 64.8389 41.3072C64.3945 41.2891 64.3945 41.2891 63.9844 41.1523C63.9847 41.3005 63.9847 41.3005 63.9851 41.4517C63.9912 43.8596 63.9957 46.2675 63.9985 48.6753C63.9999 49.8398 64.0019 51.0042 64.005 52.1687C64.0077 53.184 64.0095 54.1994 64.0101 55.2148C64.0104 55.752 64.0113 56.2892 64.0133 56.8265C64.0151 57.333 64.0157 57.8395 64.0153 58.3461C64.0154 58.6188 64.0169 58.8915 64.0184 59.1643C64.015 60.6453 63.9632 62.072 62.8789 63.1828C61.8585 64.1268 61.0025 64.407 59.6094 64.3945C58.4849 64.2022 57.6253 63.6322 56.969 62.7112C56.3031 61.7242 56.2881 60.6394 56.291 59.4909C56.29 59.2736 56.29 59.2736 56.2889 59.052C56.2875 58.7392 56.2867 58.4264 56.2864 58.1136C56.2859 57.6189 56.2836 57.1243 56.2808 56.6296C56.2733 55.2237 56.2691 53.8179 56.2657 52.412C56.2636 51.5509 56.2594 50.6898 56.2541 49.8287C56.2525 49.5004 56.2517 49.1722 56.2517 48.844C56.2517 48.3864 56.2492 47.929 56.2462 47.4714C56.2468 47.3353 56.2474 47.1991 56.2481 47.0588C56.2468 46.9345 56.2454 46.8101 56.2441 46.6819C56.2438 46.5738 56.2435 46.4657 56.2432 46.3544C56.1776 45.9997 56.0675 45.8784 55.7812 45.6641C55.2206 45.5909 55.2206 45.5909 54.7334 45.8342C54.5017 46.1387 54.4994 46.305 54.499 46.6853C54.4973 46.873 54.4973 46.873 54.4956 47.0645C54.4969 47.27 54.4969 47.27 54.4982 47.4796C54.4974 47.6242 54.4967 47.7687 54.4959 47.9177C54.4946 48.2321 54.4942 48.5465 54.4946 48.861C54.4952 49.3593 54.4933 49.8576 54.4907 50.356C54.4857 51.4153 54.4838 52.4746 54.4824 53.5339C54.4808 54.7583 54.4778 55.9826 54.4715 57.207C54.4696 57.6966 54.4702 58.1863 54.4708 58.676C54.4696 58.9787 54.4682 59.2813 54.4667 59.584C54.4679 59.7866 54.4679 59.7866 54.4692 59.9933C54.4571 61.3747 54.1772 62.4421 53.2092 63.4492C52.4555 64.1087 51.6734 64.3529 50.6885 64.4287C49.5723 64.3543 48.6566 63.9445 47.8516 63.1641C47.0954 62.2198 46.8532 61.2183 46.8564 60.0172C46.8557 59.9109 46.8549 59.8045 46.854 59.695C46.8517 59.3409 46.8513 58.9868 46.8509 58.6326C46.8497 58.3779 46.8483 58.1232 46.8468 57.8685C46.843 57.1785 46.841 56.4884 46.8392 55.7984C46.837 55.0768 46.8334 54.3551 46.8299 53.6335C46.8235 52.2676 46.8185 50.9017 46.8139 49.5357C46.8087 47.9804 46.802 46.4251 46.7951 44.8698C46.7809 41.671 46.7687 38.4722 46.7578 35.2734C46.5628 35.4663 46.3681 35.6596 46.1735 35.8529C46.0651 35.9605 45.9566 36.068 45.8449 36.1788C45.5611 36.4693 45.2939 36.7665 45.0317 37.0764C44.301 37.9199 43.7589 38.4105 42.6562 38.6914C42.6577 38.7872 42.6591 38.883 42.6606 38.9818C42.6663 39.4176 42.6698 39.8534 42.6733 40.2893C42.6756 40.4401 42.6779 40.5909 42.6803 40.7462C42.6812 40.892 42.682 41.0379 42.6829 41.1881C42.6844 41.322 42.6858 41.4559 42.6873 41.5938C42.6533 42.0085 42.5823 42.291 42.3828 42.6562C41.9574 42.9298 41.6161 42.9648 41.1162 42.9678C40.8976 42.97 40.8976 42.97 40.6747 42.9724C40.5155 42.9727 40.3564 42.973 40.1925 42.9733C40.0244 42.9747 39.8563 42.976 39.6831 42.9774C39.2227 42.9809 38.7623 42.9832 38.3019 42.985C37.8206 42.9872 37.3392 42.9908 36.8579 42.9943C35.9466 43.0007 35.0354 43.0057 34.1241 43.0103C33.0866 43.0155 32.0491 43.0223 31.0115 43.0291C28.8775 43.0433 26.7434 43.0555 24.6094 43.0664C24.6888 43.1799 24.6888 43.1799 24.7699 43.2957C26.0113 45.0691 26.0113 45.0691 26.2661 45.4331C26.4411 45.6831 26.6161 45.9331 26.791 46.1831C26.9186 46.3652 26.9186 46.3652 27.0486 46.5511C27.1252 46.6604 27.2017 46.7697 27.2805 46.8823C27.507 47.2059 27.7335 47.5295 27.96 47.8532C28.2754 48.3036 28.5908 48.754 28.9064 49.2043C29.8476 50.5477 30.7862 51.8928 31.7219 53.2401C32.2491 53.9987 32.7789 54.7554 33.3113 55.5104C33.6231 55.9537 33.9329 56.3983 34.2416 56.8437C34.3796 57.0424 34.518 57.2408 34.6571 57.4388C34.8394 57.6993 35.0184 57.9617 35.1965 58.2251C35.295 58.3686 35.3936 58.512 35.4951 58.6598C35.7223 59.1453 35.7036 59.376 35.5469 59.8828C35.1869 60.2852 34.9317 60.4116 34.4104 60.5493C33.5878 60.3541 33.2707 59.7325 32.8125 59.0625C32.7494 58.9715 32.6863 58.8806 32.6213 58.7869C32.2483 58.2488 31.8791 57.7082 31.5121 57.1661C31.0434 56.4748 30.5664 55.7898 30.0867 55.1062C30.007 54.9927 29.9274 54.8792 29.8454 54.7622C29.6841 54.5324 29.5227 54.3025 29.3613 54.0727C28.2669 52.5139 27.1758 50.9528 26.0876 49.3896C26.0033 49.2686 25.919 49.1476 25.8322 49.0229C25.0555 47.9063 24.2855 46.7853 23.5156 45.6641C23.5151 45.7913 23.5146 45.9186 23.5141 46.0497C23.5091 47.2487 23.5012 48.4476 23.4905 49.6466C23.4851 50.263 23.4807 50.8793 23.4786 51.4958C23.4765 52.0906 23.4718 52.6854 23.4653 53.2802C23.4632 53.5072 23.4622 53.7342 23.462 53.9612C23.4617 54.2791 23.458 54.5968 23.4535 54.9146C23.4546 55.0555 23.4546 55.0555 23.4556 55.1992C23.4456 55.6579 23.4052 55.8845 23.1179 56.2496C22.8074 56.4834 22.6687 56.5392 22.2851 56.5332C22.1498 56.5353 22.1498 56.5353 22.0117 56.5375C21.6036 56.4291 21.4518 56.2488 21.1914 55.918C21.1363 55.5644 21.1142 55.268 21.1168 54.9146C21.1146 54.7645 21.1146 54.7645 21.1125 54.6113C21.1085 54.2813 21.1082 53.9515 21.1081 53.6215C21.106 53.3924 21.1037 53.1633 21.1012 52.9342C21.0953 52.3318 21.0925 51.7295 21.0905 51.1271C21.0878 50.5122 21.0821 49.8972 21.0766 49.2823C21.0663 48.0762 21.0594 46.8702 21.0547 45.6641C21.0093 45.7284 20.9639 45.7927 20.9171 45.859C18.6387 49.0867 16.3604 52.3143 14.082 55.542C14.0143 55.638 13.9465 55.734 13.8767 55.8329C13.7409 56.0253 13.605 56.2176 13.4692 56.41C13.1131 56.9141 12.7576 57.4187 12.4029 57.9239C12.2924 58.0811 12.2924 58.0811 12.1797 58.2414C12.0392 58.4412 11.899 58.6411 11.7589 58.8411C10.7562 60.2662 10.7562 60.2662 10.1941 60.4297C9.65629 60.4297 9.43984 60.3502 9.02343 60.0195C8.80809 59.5889 8.84243 59.2664 8.88671 58.7891C9.05665 58.4227 9.28644 58.112 9.52758 57.7893C9.62874 57.6482 9.62874 57.6482 9.73195 57.5043C9.94946 57.2018 10.1699 56.9017 10.3906 56.6016C10.5336 56.4039 10.6764 56.2062 10.8189 56.0082C11.038 55.7041 11.2573 55.4002 11.4775 55.097C12.1181 54.2144 12.7432 53.3215 13.3665 52.4267C13.8963 51.6677 14.4347 50.9157 14.9792 50.1672C15.6671 49.2214 16.3308 48.2611 16.9874 47.2932C17.5161 46.5166 18.0612 45.7542 18.6242 45.002C18.9537 44.5601 19.2676 44.1111 19.5724 43.6518C19.6454 43.5419 19.7184 43.432 19.7937 43.3188C19.8489 43.2355 19.9041 43.1522 19.9609 43.0664C19.8677 43.0667 19.7745 43.0669 19.6785 43.0672C17.4112 43.0732 15.144 43.0777 12.8767 43.0806C11.7803 43.082 10.6839 43.0839 9.58746 43.087C8.6319 43.0898 7.67634 43.0915 6.72077 43.0921C6.21474 43.0925 5.70871 43.0933 5.20268 43.0953C4.63799 43.0975 4.07331 43.0976 3.50861 43.0974C3.25652 43.0989 3.25652 43.0989 2.99933 43.1004C2.7687 43.0999 2.7687 43.0999 2.53342 43.0993C2.39983 43.0995 2.26624 43.0998 2.1286 43.1001C1.75307 43.0641 1.53984 43.0077 1.23046 42.793C0.837994 42.2904 0.918622 41.6609 0.921378 41.0534C0.920855 40.9317 0.920332 40.81 0.919793 40.6847C0.91838 40.2761 0.918926 39.8675 0.919469 39.4589C0.918875 39.1663 0.918166 38.8737 0.917351 38.5811C0.915518 37.7856 0.915442 36.9902 0.915788 36.1947C0.915934 35.5311 0.915267 34.8676 0.914611 34.204C0.913093 32.6388 0.913035 31.0736 0.913861 29.5085C0.914687 27.8926 0.913003 26.2768 0.910092 24.661C0.907686 23.2746 0.906863 21.8883 0.907308 20.5019C0.907556 19.6735 0.907192 18.8451 0.905296 18.0167C0.903581 17.2378 0.903838 16.4589 0.905626 15.68C0.90595 15.3939 0.905572 15.1078 0.904447 14.8217C0.903023 14.4316 0.904118 14.0415 0.905857 13.6514C0.904848 13.5378 0.90384 13.4242 0.902802 13.3072C0.908704 12.6791 0.960183 12.2684 1.36718 11.7578C1.70483 11.589 1.92696 11.6035 2.30475 11.6027ZM3.28124 13.8086C3.28124 22.6967 3.28124 31.5848 3.28124 40.7422C15.508 40.7422 27.7348 40.7422 40.332 40.7422C40.332 40.1105 40.332 39.4789 40.332 38.8281C40.1459 38.7379 39.9598 38.6477 39.7681 38.5547C38.6501 38.0126 38.046 36.7065 37.4097 35.6921C37.2411 35.4252 37.0725 35.1584 36.9039 34.8916C36.8164 34.753 36.7289 34.6144 36.6388 34.4716C36.2711 33.8913 35.8995 33.3136 35.5279 32.7358C35.0766 32.0334 34.6276 31.3296 34.1797 30.625C34.0617 30.4395 34.0617 30.4395 33.9413 30.2502C33.7288 29.9146 33.5181 29.5779 33.3081 29.2407C33.2471 29.1445 33.1861 29.0484 33.1232 28.9493C32.543 28.0082 32.2785 27.0818 32.4023 25.9766C32.5394 25.4336 32.7228 24.9206 32.9789 24.4224C33.1265 24.0687 33.1265 24.0687 32.9564 23.7703C32.8809 23.6746 32.8054 23.579 32.7276 23.4804C32.6451 23.373 32.5626 23.2656 32.4777 23.155C32.388 23.0428 32.2982 22.9306 32.2058 22.8149C32.0275 22.5821 31.8495 22.3491 31.6717 22.1159C31.5854 22.0038 31.499 21.8918 31.4101 21.7764C31.116 21.3918 30.8356 21.0035 30.5652 20.6018C30.492 20.4952 30.4189 20.3886 30.3435 20.2787C30.1704 19.8513 30.2331 19.58 30.3515 19.1406C30.6688 18.7746 30.8708 18.7345 31.3518 18.6648C31.8555 18.7305 31.8555 18.7305 32.2298 19.107C32.3502 19.2784 32.4674 19.4522 32.5818 19.6277C32.6462 19.7188 32.7105 19.81 32.7769 19.9039C33.1082 20.3785 33.4078 20.86 33.683 21.3692C34.162 22.3188 34.162 22.3188 34.9818 22.9248C35.4588 23.0047 35.9232 22.9953 36.4051 22.9768C37.2499 22.9635 37.719 23.2774 38.3496 23.7976C38.768 24.2892 39.1432 24.8051 39.5165 25.3314C39.7769 25.6917 40.0543 26.0396 40.332 26.3867C40.332 22.2359 40.332 18.0852 40.332 13.8086C28.1053 13.8086 15.8785 13.8086 3.28124 13.8086ZM47.8516 25.293C47.6523 25.5375 47.4506 25.7801 47.2449 26.0193C47.0367 26.2783 46.8288 26.5375 46.6211 26.7969C46.4819 26.9679 46.3425 27.1388 46.2029 27.3096C45.537 28.125 44.8735 28.9419 44.2251 29.7713C44.0384 30.0101 43.8505 30.2479 43.6624 30.4856C43.4712 30.7303 43.2833 30.9775 43.1027 31.2301C42.8575 31.559 42.6522 31.8188 42.2466 31.9308C41.7867 31.9603 41.4978 31.9171 41.1454 31.6155C40.8843 31.3148 40.6707 31.0164 40.4597 30.6789C40.3827 30.5568 40.3058 30.4347 40.2265 30.3088C40.1053 30.1143 40.1053 30.1143 39.9817 29.9158C39.8108 29.6446 39.6399 29.3735 39.469 29.1024C39.3418 28.9001 39.3418 28.9001 39.2121 28.6936C38.8561 28.128 38.4972 27.5643 38.136 27.002C38.0482 26.8636 38.0482 26.8636 37.9586 26.7225C37.2809 25.578 37.2809 25.578 36.2305 24.8828C35.6142 24.894 35.3502 24.9528 34.8804 25.3613C34.7845 25.4741 34.6886 25.5869 34.5898 25.7031C34.5447 25.7482 34.4996 25.7934 34.4531 25.8398C34.355 26.7947 34.5891 27.3015 35.1111 28.0872C35.1792 28.194 35.2474 28.3008 35.3176 28.4109C35.5284 28.7404 35.7425 29.0675 35.957 29.3945C36.0797 29.5847 36.2022 29.775 36.3245 29.9654C36.5671 30.3426 36.8111 30.7188 37.0561 31.0944C37.4394 31.6835 37.8164 32.2764 38.1928 32.8699C38.515 33.3779 38.8383 33.8852 39.162 34.3923C39.2942 34.5998 39.4261 34.8075 39.5576 35.0154C39.7062 35.2503 39.8567 35.4841 40.0073 35.7178C40.0852 35.8397 40.1631 35.9617 40.2434 36.0873C40.6262 36.5627 40.9378 36.6304 41.5369 36.709C42.1257 36.6915 42.4165 36.4723 42.8319 36.0719C43.1581 35.7219 43.4743 35.365 43.7842 35.0005C44.0138 34.7375 44.2526 34.4923 44.5019 34.248C44.8375 33.9185 45.152 33.579 45.459 33.2227C45.8484 32.7711 46.2543 32.3447 46.6825 31.9297C46.9138 31.7066 46.9138 31.7066 47.168 31.3855C47.4414 31.1719 47.4414 31.1719 47.9199 31.1035C48.3984 31.1719 48.3984 31.1719 48.6976 31.3764C49.0491 31.8622 49.02 32.3125 49.0126 32.8897C49.0132 33.0091 49.0139 33.1285 49.0145 33.2514C49.016 33.6522 49.0136 34.0528 49.0113 34.4536C49.0116 34.7406 49.0121 35.0276 49.0129 35.3146C49.0141 35.933 49.0135 36.5515 49.0117 37.1699C49.009 38.1477 49.0103 39.1254 49.0123 40.1031C49.0163 42.3555 49.0148 44.6078 49.0133 46.8602C49.012 48.9236 49.0118 50.9869 49.016 53.0503C49.0179 54.0224 49.017 54.9945 49.0142 55.9666C49.013 56.5713 49.014 57.176 49.0156 57.7807C49.0159 58.0612 49.0153 58.3418 49.0136 58.6223C49.0115 59.0052 49.0127 59.388 49.0147 59.7709C49.0126 59.9375 49.0126 59.9375 49.0104 60.1075C49.0189 60.8239 49.1605 61.2248 49.6289 61.7969C50.0464 62.1398 50.4565 62.0867 50.9827 62.0532C51.4442 61.8607 51.7162 61.5413 51.9531 61.1133C52.0515 60.6316 52.0448 60.1598 52.0389 59.6695C52.0399 59.5258 52.0409 59.3821 52.0419 59.234C52.0445 58.7599 52.0423 58.2859 52.0402 57.8117C52.0413 57.4814 52.0427 57.1511 52.0445 56.8208C52.0484 55.9514 52.0484 55.082 52.0475 54.2126C52.0465 52.822 52.0508 51.4314 52.056 50.0409C52.0572 49.5559 52.0565 49.0709 52.0555 48.5859C52.056 48.2873 52.0565 47.9887 52.0571 47.6901C52.0563 47.556 52.0555 47.4218 52.0547 47.2836C52.0596 46.153 52.1801 45.2094 52.9101 44.2969C53.6331 43.6053 54.2262 43.3335 55.2173 43.2971C56.186 43.319 57.0012 43.6028 57.6953 44.2969C58.1735 44.9883 58.3955 45.5972 58.3969 46.432C58.3977 46.6211 58.3977 46.6211 58.3985 46.8141C58.3984 47.0202 58.3984 47.0202 58.3983 47.2304C58.3988 47.3758 58.3992 47.5213 58.3997 47.6711C58.4007 47.987 58.4015 48.3028 58.402 48.6187C58.4029 49.1186 58.4051 49.6185 58.4076 50.1184C58.4148 51.5398 58.4213 52.9612 58.4235 54.3826C58.4248 55.252 58.4288 56.1214 58.4346 56.9907C58.4363 57.322 58.437 57.6533 58.4367 57.9847C58.4363 58.4481 58.4394 58.9114 58.4431 59.3749C58.4422 59.5117 58.4413 59.6485 58.4404 59.7895C58.4509 60.5713 58.5254 61.048 59.0625 61.6602C59.5777 62.0037 59.8187 62.0061 60.4297 61.9336C60.8362 61.69 61.1716 61.4068 61.3867 60.9766C61.3997 60.787 61.4043 60.5968 61.4045 60.4068C61.4053 60.2266 61.4053 60.2266 61.406 60.0427C61.4059 59.9099 61.4057 59.7771 61.4056 59.6403C61.406 59.4999 61.4064 59.3594 61.4067 59.2147C61.4079 58.741 61.4081 58.2674 61.4083 57.7937C61.4089 57.4553 61.4096 57.1169 61.4104 56.7786C61.4119 56.0484 61.4131 55.3182 61.4139 54.588C61.4154 53.434 61.4182 52.28 61.4212 51.126C61.4222 50.7314 61.4232 50.3367 61.4243 49.9421C61.4246 49.7941 61.4246 49.7941 61.425 49.6432C61.4279 48.52 61.4305 47.3967 61.4329 46.2735C61.4331 46.1708 61.4334 46.0681 61.4336 45.9623C61.4372 44.298 61.4397 42.6338 61.442 40.9695C61.4444 39.2615 61.4483 37.5536 61.4536 35.8457C61.4568 34.7918 61.4587 33.738 61.459 32.6841C61.4593 31.8766 61.4618 31.0691 61.465 30.2616C61.466 29.9301 61.4663 29.5986 61.4658 29.2671C61.4653 28.8153 61.4672 28.3636 61.4698 27.9118C61.4691 27.7799 61.4683 27.648 61.4675 27.5121C61.4791 26.3572 61.4791 26.3572 61.9336 25.8398C62.4165 25.7081 62.7377 25.6508 63.2153 25.8142C63.4375 25.9766 63.4375 25.9766 63.5742 26.25C63.5888 26.6176 63.5953 26.9818 63.5958 27.3495C63.5965 27.4631 63.5972 27.5768 63.5979 27.6938C63.5993 27.9411 63.6005 28.1883 63.6014 28.4355C63.6031 28.8268 63.6057 29.2181 63.6087 29.6094C63.6171 30.7222 63.6245 31.835 63.6291 32.9478C63.6319 33.628 63.6368 34.3083 63.6429 34.9885C63.6448 35.2478 63.646 35.5071 63.6464 35.7664C63.6471 36.1294 63.6503 36.4923 63.654 36.8552C63.6536 36.9623 63.6532 37.0693 63.6527 37.1796C63.6644 37.9459 63.835 38.3841 64.3518 38.9392C64.8195 39.1794 65.2552 39.2085 65.7617 39.1016C66.1745 38.8619 66.5021 38.5779 66.7187 38.1445C66.7344 37.7234 66.7417 37.3053 66.7429 36.884C66.7438 36.7533 66.7447 36.6225 66.7457 36.4878C66.7484 36.0538 66.75 35.6199 66.7513 35.1859C66.7519 35.0378 66.7524 34.8897 66.753 34.7372C66.7559 33.9535 66.7578 33.1698 66.7591 32.3861C66.7606 31.5764 66.7653 30.7666 66.7707 29.9569C66.7743 29.3345 66.7755 28.7122 66.7759 28.0899C66.7766 27.7914 66.7782 27.4929 66.7807 27.1944C66.7841 26.7764 66.7839 26.3586 66.783 25.9406C66.7847 25.8175 66.7865 25.6943 66.7883 25.5674C66.7821 24.82 66.6862 24.3719 66.1719 23.7891C65.7592 23.5333 65.4397 23.4793 64.9578 23.4708C64.8237 23.4678 64.6896 23.4649 64.5514 23.4619C64.4051 23.4601 64.2587 23.4582 64.108 23.4564C63.9532 23.4535 63.7984 23.4506 63.6389 23.4476C62.211 23.4229 60.7828 23.4101 59.3547 23.4011C58.3007 23.3943 57.2471 23.3817 56.1933 23.3609C55.3605 23.345 54.5279 23.339 53.6949 23.3363C53.3421 23.3338 52.9894 23.3281 52.6367 23.3193C50.3931 23.2664 49.1023 23.3319 47.8516 25.293Z" fill="#444444"/><path d="M59.635 7.26317C61.2579 8.76084 61.9586 10.5488 62.0703 12.7148C62.027 14.6074 61.2569 16.2579 59.9432 17.6116C58.3223 19.0613 56.6012 19.5326 54.4728 19.4573C53.7639 19.4159 53.1484 19.3 52.5 19.0039C52.3787 18.9505 52.2575 18.8971 52.1326 18.8421C50.4317 18.0082 49.1883 16.5837 48.5608 14.7998C47.9594 12.7692 48.2683 10.8554 49.2572 8.99886C50.3406 7.22104 52.0192 6.27253 54.0039 5.77635C56.1175 5.60022 57.8633 6.08205 59.635 7.26317ZM51.6797 9.43358C50.7577 10.682 50.4404 11.8538 50.5859 13.3984C50.9194 14.7495 51.6914 15.788 52.8728 16.5082C54.0354 17.1495 55.1997 17.3363 56.5049 16.9601C57.9402 16.3949 58.8126 15.5938 59.4785 14.192C59.9341 12.9986 59.8751 11.8015 59.3984 10.624C58.7363 9.39381 57.7058 8.53232 56.4221 8.02367C54.6232 7.68828 52.9791 8.10128 51.6797 9.43358Z" fill="#444444"/><path d="M8.32547 34.9808C8.42192 34.9804 8.51837 34.98 8.61775 34.9796C8.94175 34.9784 9.26574 34.9782 9.58974 34.978C9.82171 34.9774 10.0537 34.9767 10.2857 34.9759C10.9164 34.9741 11.5472 34.9733 12.178 34.9727C12.5719 34.9723 12.9659 34.9717 13.3598 34.9711C14.592 34.9692 15.8241 34.9679 17.0563 34.9674C18.4794 34.9667 19.9025 34.9643 21.3256 34.9604C22.4251 34.9574 23.5247 34.9561 24.6243 34.9559C25.2812 34.9557 25.9381 34.9549 26.5951 34.9525C27.213 34.9502 27.8308 34.9499 28.4487 34.9511C28.6755 34.9512 28.9023 34.9506 29.1291 34.9493C29.4387 34.9476 29.7482 34.9484 30.0578 34.9498C30.231 34.9496 30.4043 34.9494 30.5828 34.9492C31.0714 35.0041 31.3294 35.1153 31.7187 35.4102C31.9333 35.8393 31.9036 36.1674 31.8555 36.6406C31.4997 37.1025 31.2952 37.3011 30.716 37.4099C30.5411 37.41 30.3662 37.41 30.186 37.4101C30.0881 37.4111 29.9903 37.4121 29.8896 37.4131C29.5626 37.4155 29.2358 37.413 28.9088 37.4105C28.6741 37.4112 28.4394 37.4122 28.2047 37.4135C27.5677 37.416 26.9308 37.4143 26.2938 37.4116C25.6272 37.4093 24.9606 37.4105 24.294 37.4112C23.1745 37.4118 22.0551 37.4097 20.9357 37.4059C19.6414 37.4015 18.3472 37.4015 17.053 37.4038C15.808 37.406 14.563 37.4051 13.318 37.4027C12.7881 37.4018 12.2583 37.4019 11.7284 37.403C11.1045 37.404 10.4806 37.4023 9.85664 37.3986C9.62765 37.3977 9.39864 37.3976 9.16965 37.3986C8.85703 37.3998 8.54461 37.3976 8.23201 37.3946C8.05709 37.3942 7.88217 37.3938 7.70195 37.3934C7.16768 37.3123 6.93925 37.1581 6.5625 36.7774C6.48132 36.4692 6.48132 36.4692 6.49414 36.1536C6.49555 36.0491 6.49696 35.9446 6.49841 35.8369C6.57706 35.481 6.68714 35.3583 6.97265 35.1367C7.44943 34.9778 7.82217 34.982 8.32547 34.9808Z" fill="#4A3AFF"/><path d="M8.00711 29.0526C8.09708 29.0518 8.18704 29.051 8.27974 29.0503C8.58101 29.0484 8.88212 29.0504 9.18339 29.0525C9.39944 29.052 9.6155 29.0512 9.83155 29.0502C10.4183 29.0483 11.0049 29.0499 11.5916 29.0521C12.2054 29.054 12.8191 29.0531 13.4329 29.0526C14.4636 29.0523 15.4943 29.0541 16.525 29.0573C17.717 29.0609 18.9089 29.0612 20.1009 29.0596C21.2471 29.0581 22.3933 29.0589 23.5395 29.0609C24.0275 29.0617 24.5155 29.0616 25.0035 29.061C25.5781 29.0603 26.1526 29.0617 26.7272 29.0647C26.9381 29.0654 27.1491 29.0655 27.3601 29.0648C27.6479 29.064 27.9356 29.0657 28.2234 29.0681C28.3845 29.0684 28.5456 29.0687 28.7116 29.0691C29.1633 29.1264 29.3518 29.2077 29.668 29.5312C29.8201 30.0789 29.8644 30.3635 29.6167 30.8813C29.3945 31.1719 29.3945 31.1719 29.2578 31.3086C28.9736 31.323 28.6888 31.3277 28.4042 31.3287C28.314 31.3292 28.2239 31.3297 28.131 31.3302C27.8266 31.3317 27.5222 31.3323 27.2178 31.3328C27.0005 31.3336 26.7831 31.3345 26.5658 31.3355C25.9737 31.3379 25.3816 31.3393 24.7895 31.3404C24.4199 31.3411 24.0503 31.342 23.6807 31.3428C22.5251 31.3454 21.3695 31.3474 20.214 31.3485C18.8784 31.3499 17.543 31.3535 16.2074 31.359C15.1763 31.3631 14.1451 31.3651 13.1139 31.3656C12.4975 31.3659 11.8812 31.3671 11.2648 31.3706C10.685 31.3737 10.1052 31.3743 9.52536 31.3729C9.31239 31.3729 9.09943 31.3737 8.88647 31.3756C8.59593 31.378 8.3056 31.3771 8.01506 31.3753C7.77109 31.3757 7.77109 31.3757 7.52219 31.3762C7.0259 31.2949 6.86615 31.1545 6.5625 30.7617C6.48987 30.4883 6.48987 30.4883 6.49414 30.2148C6.49203 30.0795 6.49203 30.0795 6.48987 29.9414C6.69982 29.151 7.27594 29.0527 8.00711 29.0526Z" fill="#4A3AFF"/><path d="M8.15938 23.0872C8.32115 23.0866 8.48293 23.086 8.64961 23.0854C8.82732 23.0855 9.00503 23.0856 9.18812 23.0856C9.377 23.0852 9.56587 23.0848 9.75475 23.0842C10.268 23.083 10.7813 23.0827 11.2945 23.0826C11.723 23.0825 12.1514 23.082 12.5798 23.0815C13.5907 23.0804 14.6015 23.0801 15.6124 23.0802C16.6551 23.0802 17.6979 23.0788 18.7406 23.0766C19.6358 23.0748 20.5311 23.0741 21.4263 23.0742C21.961 23.0742 22.4956 23.0738 23.0303 23.0724C23.5333 23.0711 24.0362 23.0711 24.5392 23.0721C24.8116 23.0723 25.0839 23.0711 25.3563 23.0699C25.6001 23.0708 25.6001 23.0708 25.8489 23.0717C25.9899 23.0716 26.1309 23.0715 26.2761 23.0715C26.6879 23.1079 26.9774 23.1884 27.3437 23.3789C27.6856 23.8917 27.6905 24.1389 27.6172 24.7461C27.3921 25.1081 27.2992 25.2357 26.9336 25.4297C26.311 25.5337 25.6889 25.5218 25.0596 25.516C24.8666 25.5167 24.6737 25.5177 24.4807 25.519C23.9575 25.5215 23.4345 25.5197 22.9113 25.517C22.3635 25.5148 21.8157 25.516 21.2679 25.5167C20.348 25.5173 19.4281 25.5151 18.5082 25.5113C17.445 25.5069 16.382 25.5069 15.3188 25.5093C14.2956 25.5115 13.2724 25.5105 12.2492 25.5082C11.8139 25.5073 11.3787 25.5074 10.9435 25.5084C10.4309 25.5095 9.91831 25.5078 9.40568 25.5041C9.21769 25.5031 9.0297 25.5031 8.84171 25.5041C8.58484 25.5053 8.32796 25.5028 8.07111 25.5001C7.92745 25.4997 7.78378 25.4993 7.63576 25.4989C7.14652 25.412 6.91479 25.2268 6.5625 24.8828C6.48132 24.5747 6.48132 24.5747 6.49414 24.2591C6.49555 24.1545 6.49696 24.05 6.49841 23.9424C6.57706 23.5865 6.68714 23.4637 6.97265 23.2422C7.4038 23.0985 7.70668 23.0879 8.15938 23.0872Z" fill="#4A3AFF"/><path d="M8.63064 17.0191C8.83917 17.0177 8.83917 17.0177 9.05191 17.0162C9.511 17.0138 9.96998 17.0154 10.4291 17.0172C10.7483 17.0169 11.0676 17.0163 11.3868 17.0156C12.0557 17.0148 12.7245 17.016 13.3934 17.0186C14.2509 17.0217 15.1082 17.0199 15.9657 17.0166C16.6248 17.0146 17.284 17.0153 17.9431 17.0167C18.2593 17.017 18.5755 17.0166 18.8916 17.0153C19.3335 17.0139 19.7752 17.0161 20.217 17.0191C20.4131 17.0174 20.4131 17.0174 20.6131 17.0157C21.1967 17.0232 21.5176 17.0385 22.0248 17.3485C22.3258 17.6818 22.3715 17.8177 22.3535 18.2605C22.3521 18.365 22.3507 18.4695 22.3492 18.5772C22.2706 18.9331 22.1605 19.0558 21.875 19.2774C21.4982 19.403 21.2739 19.4317 20.8855 19.4333C20.7084 19.4345 20.7084 19.4345 20.5277 19.4356C20.3986 19.4358 20.2695 19.436 20.1364 19.4361C20.0001 19.4368 19.8638 19.4375 19.7234 19.4382C19.2717 19.4402 18.82 19.4411 18.3684 19.4419C18.0549 19.4426 17.7414 19.4434 17.4279 19.4442C16.7702 19.4457 16.1126 19.4465 15.455 19.4469C14.6119 19.4477 13.7689 19.451 12.9259 19.4549C12.2783 19.4574 11.6306 19.4581 10.9829 19.4583C10.6721 19.4587 10.3613 19.4598 10.0505 19.4616C9.61583 19.464 9.18125 19.4637 8.7466 19.4628C8.61802 19.4641 8.48944 19.4653 8.35697 19.4666C7.62595 19.4619 7.10624 19.4109 6.5625 18.8672C6.52512 18.6039 6.52512 18.6039 6.51123 18.2776C6.50453 18.171 6.49784 18.0644 6.49094 17.9545C6.5625 17.6367 6.5625 17.6367 6.82224 17.3479C7.42606 16.9803 7.93626 17.0132 8.63064 17.0191Z" fill="#4A3AFF"/><path d="M55.7812 33.7695C56.0628 33.9854 56.1703 34.1375 56.3281 34.4531C56.3644 34.8995 56.3598 35.347 56.3623 35.7947C56.3651 35.9181 56.3679 36.0416 56.3708 36.1688C56.3748 36.8447 56.3714 37.3285 55.918 37.8711C55.4895 38.0853 55.0113 38.1243 54.5508 38.0078C54.1958 37.7107 54.0271 37.4715 53.9544 37.0099C53.9351 36.6346 53.9361 36.2643 53.9441 35.8887C53.9431 35.7605 53.9421 35.6324 53.9411 35.5004C53.9522 34.2998 53.9522 34.2998 54.4141 33.7695C54.9296 33.5977 55.2533 33.6564 55.7812 33.7695Z" fill="#444444"/><path d="M55.1746 27.2754C55.3313 27.2775 55.3313 27.2775 55.4913 27.2796C55.8471 27.3583 55.9699 27.4684 56.1914 27.7539C56.3801 28.3201 56.3587 28.8527 56.3623 29.4458C56.3651 29.5621 56.3679 29.6784 56.3708 29.7983C56.375 30.4589 56.3567 30.9143 55.918 31.4453C55.5078 31.7187 55.5078 31.7187 55.0293 31.6845C54.5508 31.582 54.5508 31.582 54.1406 31.3086C53.9391 30.704 53.9676 30.1133 53.9612 29.48C53.9572 29.3506 53.9532 29.2212 53.9492 29.088C53.9437 28.4952 53.9498 28.1251 54.241 27.599C54.5887 27.3124 54.7303 27.2573 55.1746 27.2754Z" fill="#444444"/></svg>