<svg xmlns="http://www.w3.org/2000/svg" width="70" height="70" viewBox="0 0 70 70" fill="none"><g clip-path="url(#clip0_2083_10)"><path d="M43.9465 14.2273C44.1554 14.4056 44.3634 14.585 44.5703 14.7656C44.6688 14.843 44.7674 14.9203 44.8689 15.0001C46.8356 16.6022 48.1869 18.9816 48.9966 21.3537C49.0293 21.4494 49.0619 21.5451 49.0956 21.6437C49.5364 23.023 49.6699 24.4095 49.6665 25.8512C49.6675 26.0853 49.6675 26.0853 49.6686 26.3241C49.6705 26.8343 49.6704 27.3446 49.67 27.8548C49.6706 28.2119 49.6712 28.5689 49.6718 28.926C49.6729 29.6717 49.6728 30.4174 49.6721 31.1631C49.6712 32.0231 49.6729 32.8831 49.6758 33.7432C49.6786 34.5744 49.679 35.4055 49.6785 36.2367C49.6786 36.5889 49.6793 36.9411 49.6806 37.2932C49.6823 37.785 49.6814 38.2767 49.6798 38.7685C49.6809 38.9133 49.6819 39.0581 49.683 39.2073C49.674 40.4645 49.3587 41.2156 48.5037 42.1462C47.9802 42.6581 47.447 42.9241 46.7148 42.9339C46.6003 42.9293 46.4859 42.9247 46.368 42.9201C44.9022 42.8547 44.9022 42.8547 43.5791 43.3665C43.2489 43.7457 43.2489 43.7457 42.9628 44.1591C42.6127 44.6288 42.2396 44.9326 41.7676 45.271C41.5624 45.4195 41.5624 45.4195 41.3532 45.5711C41.0156 45.8008 41.0156 45.8008 40.7422 45.9375C40.653 46.2143 40.653 46.2143 40.6055 46.4844C40.696 46.4912 40.7865 46.4981 40.8798 46.5052C41.8187 46.5826 42.7372 46.7126 43.664 46.8796C43.8067 46.9051 43.9494 46.9305 44.0964 46.9568C44.396 47.0107 44.6955 47.0649 44.9949 47.1195C45.4485 47.2018 45.9024 47.2813 46.3565 47.3607C49.1723 47.8653 51.5095 48.6319 53.3203 50.9961C54.3997 52.7104 54.9235 54.7275 55.5472 56.6381C55.6667 57.0029 55.7876 57.3673 55.9085 57.7316C56.053 58.1672 56.1967 58.6031 56.3404 59.039C56.3942 59.202 56.4481 59.3651 56.5035 59.5331C56.5524 59.6829 56.6013 59.8327 56.6517 59.9871C56.695 60.1191 56.7383 60.2512 56.7828 60.3872C56.875 60.7031 56.875 60.7031 56.875 60.9765C45.0318 61.0442 45.0318 61.0442 32.9492 61.1133C33.4004 61.5644 33.8516 62.0156 34.3164 62.4804C34.1639 63.0906 34.0603 63.181 33.5986 63.5742C33.0314 64.0669 32.474 64.5666 31.9238 65.0781C31.2884 65.6665 30.6496 66.2506 30.0023 66.8261C29.7699 67.0366 29.5415 67.2517 29.3166 67.4701C27.4097 69.2964 25.4973 70.0731 22.8593 70.0574C20.2306 69.9875 18.4042 68.6863 16.6159 66.878C16.4528 66.7156 16.2896 66.5533 16.1262 66.3912C15.6869 65.9544 15.2496 65.5154 14.8129 65.0759C14.3534 64.6142 13.8922 64.1543 13.4313 63.694C12.6581 62.9214 11.8863 62.1475 11.1153 61.3726C10.2262 60.4792 9.33491 59.5879 8.44244 58.6978C7.58066 57.8382 6.72043 56.977 5.8609 56.1151C5.49651 55.7498 5.1316 55.385 4.76624 55.0207C4.33561 54.5911 3.90638 54.1602 3.47815 53.7283C3.32155 53.5707 3.1645 53.4136 3.00694 53.2571C1.49819 51.7567 0.118806 49.9323 1.36985e-05 47.7148C-0.00844577 47.5909 -0.0169052 47.467 -0.0256211 47.3394C-0.11625 45.0255 0.625989 43.0204 2.18468 41.3142C3.11984 40.3186 4.09885 39.364 5.06715 38.4009C5.29211 38.1766 5.51704 37.9523 5.74193 37.7279C6.28853 37.1828 6.83552 36.6381 7.38283 36.0937C8.34301 36.8786 9.20439 37.7613 10.0782 38.639C10.2454 38.8065 10.4126 38.9739 10.5799 39.1413C11.0173 39.5793 11.4544 40.0177 11.8913 40.4561C12.3384 40.9046 12.7858 41.3526 13.2332 41.8007C14.109 42.6779 14.9843 43.5556 15.8594 44.4336C15.6787 44.8358 15.4857 45.1119 15.168 45.4164C15.0836 45.4981 14.9992 45.5798 14.9123 45.664C14.8214 45.7509 14.7306 45.8378 14.6369 45.9273C14.4452 46.1143 14.2536 46.3013 14.062 46.4884C13.7601 46.7818 13.4577 47.0745 13.1538 47.3658C12.8601 47.6478 12.5692 47.9323 12.2785 48.2174C12.1874 48.3034 12.0962 48.3895 12.0023 48.4781C11.5799 48.8958 11.3689 49.1469 11.1976 49.7278C11.2123 50.2195 11.2469 50.3482 11.5875 50.6885C11.7205 50.8254 11.7205 50.8254 11.8562 50.9651C11.9591 51.0656 12.062 51.166 12.168 51.2695C12.283 51.3869 12.3981 51.5043 12.5167 51.6252C12.896 52.0109 13.2791 52.3926 13.6633 52.7734C13.7973 52.9067 13.9313 53.0401 14.0652 53.1734C14.3895 53.4961 14.7142 53.8185 15.0391 54.1406C15.0841 54.0311 15.129 53.9216 15.1754 53.8088C15.2354 53.6634 15.2955 53.5181 15.3574 53.3684C15.4165 53.225 15.4755 53.0817 15.5364 52.934C16.4842 50.7255 17.9822 49.033 20.2344 48.125C21.8319 47.6531 23.4745 47.3634 25.112 47.0695C25.5195 46.9963 25.9267 46.9214 26.3339 46.8464C26.5954 46.799 26.8569 46.7516 27.1184 46.7044C27.2389 46.6822 27.3594 46.66 27.4835 46.6371C28.0833 46.5305 28.6456 46.4587 29.2578 46.4844C29.2087 46.1298 29.1699 45.9769 28.8867 45.7479C28.7864 45.6892 28.6861 45.6305 28.5828 45.57C26.1268 44.0146 24.4322 41.5175 23.7891 38.6914C23.7891 38.556 23.7891 38.4207 23.7891 38.2812C23.6791 38.2728 23.5691 38.2643 23.4558 38.2556C22.3673 38.0073 21.5397 37.427 20.918 36.5039C20.4314 35.6571 20.2139 34.9631 20.2124 33.9819C20.2117 33.8785 20.211 33.775 20.2103 33.6685C20.2083 33.3255 20.2074 32.9825 20.2066 32.6394C20.2058 32.3997 20.205 32.16 20.2043 31.9203C20.2028 31.4164 20.202 30.9125 20.2015 30.4087C20.2008 29.7684 20.1975 29.1282 20.1936 28.4879C20.191 27.9917 20.1904 27.4955 20.1902 26.9993C20.1897 26.7637 20.1887 26.528 20.1868 26.2924C20.1733 24.4017 20.3572 22.6327 21.012 20.841C21.0469 20.7447 21.0819 20.6483 21.1179 20.549C22.5347 16.7979 25.5101 13.9385 29.1211 12.3047C33.9553 10.2392 39.815 10.982 43.9465 14.2273ZM27.0703 16.4062C26.9658 16.4885 26.8613 16.5708 26.7536 16.6556C24.3754 18.6285 22.8874 21.6996 22.5586 24.7461C22.517 25.6227 22.5326 26.5007 22.5415 27.3779C22.5429 27.6141 22.5441 27.8504 22.5453 28.0866C22.5482 28.6593 22.5529 29.232 22.5586 29.8047C23.0323 29.6693 23.0323 29.6693 23.5156 29.5312C23.5156 29.0801 23.5156 28.6289 23.5156 28.164C23.6679 28.1688 23.8202 28.1736 23.9771 28.1785C27.5745 28.2571 30.6537 27.1989 33.3594 24.7461C33.7212 24.3761 34.0784 24.0038 34.427 23.6213C34.5258 23.5413 34.6247 23.4613 34.7266 23.3789C35.3593 23.4514 35.6732 23.8932 36.0852 24.3359C38.1775 26.4944 41.1189 28.0657 44.1799 28.1745C44.4896 28.1774 44.7989 28.176 45.1087 28.1726C45.2685 28.1717 45.2685 28.1717 45.4315 28.1707C45.6913 28.1691 45.9511 28.1667 46.2109 28.164C46.2109 28.5701 46.2109 28.9761 46.2109 29.3945C46.7311 29.6955 46.7311 29.6955 47.3047 29.8047C47.3116 29.1777 47.3165 28.5508 47.3197 27.9238C47.3211 27.7114 47.3229 27.499 47.3253 27.2866C47.369 23.3101 46.3392 19.973 43.5193 17.0642C41.0996 14.657 37.9163 13.6291 34.5634 13.6291C31.7558 13.6647 29.2463 14.6182 27.0703 16.4062ZM34.8633 26.5234C34.8065 26.5782 34.7498 26.633 34.6913 26.6895C32.2228 28.967 29.2388 29.9677 25.9766 30.4883C25.9661 31.4292 25.959 32.3702 25.954 33.3113C25.952 33.6307 25.9492 33.9501 25.9456 34.2695C25.9104 37.505 26.2214 40.0721 28.5742 42.5195C30.3076 44.2121 32.4978 45.0817 34.9146 45.177C36.9907 45.1164 39.1282 44.4069 40.6055 42.9297C38.7106 42.9297 36.8156 42.9297 34.8633 42.9297C34.8633 42.1627 34.8633 41.3957 34.8633 40.6054C37.435 40.6054 40.0067 40.6054 42.6563 40.6054C43.8879 38.1421 43.9429 36.3948 43.9124 33.7268C43.9103 33.4121 43.9084 33.0975 43.9068 32.7828C43.9023 32.0179 43.8954 31.2531 43.8867 30.4883C43.8058 30.4737 43.725 30.4592 43.6416 30.4442C43.2689 30.3766 42.8963 30.3077 42.5238 30.2389C42.3966 30.216 42.2694 30.1931 42.1384 30.1696C39.5942 29.6956 37.4296 28.5245 35.4102 26.9336C35.2283 26.7963 35.0462 26.6594 34.8633 26.5234ZM23.0371 32.4536C22.5801 33.0142 22.5183 33.6085 22.5586 34.3164C22.7833 34.9669 22.9507 35.1232 23.5156 35.5469C23.5156 34.4189 23.5156 33.291 23.5156 32.1289C23.3169 32.1132 23.3169 32.1132 23.0371 32.4536ZM46.2109 32.1289C46.2109 33.3019 46.2109 34.475 46.2109 35.6836C47.0469 35.0481 47.0469 35.0481 47.3047 34.1797C47.3156 33.4022 47.126 32.8744 46.6211 32.2656C46.4858 32.2205 46.3504 32.1754 46.2109 32.1289ZM46.0742 38.2812C45.7457 38.9759 45.3906 39.8275 45.3906 40.6054C46.1841 40.6718 46.1841 40.6718 46.886 40.3491C47.3747 39.8456 47.3195 39.5003 47.3132 38.811C47.312 38.6358 47.3108 38.4606 47.3095 38.2802C47.3079 38.1452 47.3063 38.0102 47.3047 37.8711C46.7982 37.8711 46.4585 37.975 46.0742 38.2812ZM7.16012 39.721C7.07289 39.8099 6.98565 39.8987 6.89577 39.9902C6.80818 40.079 6.72058 40.1679 6.63034 40.2594C6.56284 40.3285 6.49534 40.3975 6.4258 40.4687C6.61394 40.8914 6.82933 41.1792 7.15699 41.5044C7.25003 41.5974 7.34308 41.6904 7.43894 41.7863C7.53921 41.8851 7.63948 41.984 7.74278 42.0859C7.84557 42.1883 7.94836 42.2907 8.05427 42.3962C8.38239 42.7228 8.71145 43.0484 9.04054 43.374C9.26331 43.5954 9.48601 43.8168 9.70865 44.0384C10.2543 44.581 10.8007 45.1228 11.3477 45.664C11.5088 45.5408 11.6679 45.4149 11.8262 45.2881C11.915 45.2183 12.0038 45.1485 12.0954 45.0766C12.3656 44.8281 12.3656 44.8281 12.3047 44.2969C12.1248 44.0368 12.1248 44.0368 11.8676 43.7955C11.7722 43.6997 11.6769 43.604 11.5786 43.5053C11.4744 43.4035 11.3702 43.3016 11.2628 43.1967C11.1569 43.0913 11.051 42.9858 10.9419 42.8772C10.7178 42.6545 10.4931 42.4325 10.2678 42.2112C9.92135 41.8708 9.57678 41.5286 9.23253 41.186C9.01501 40.9703 8.79739 40.7547 8.57965 40.5392C8.47569 40.4363 8.37172 40.3333 8.26461 40.2272C8.16882 40.1332 8.07302 40.0392 7.97433 39.9423C7.88962 39.8589 7.80492 39.7756 7.71765 39.6897C7.43476 39.4355 7.4417 39.4564 7.16012 39.721ZM4.0674 42.7844C3.53682 43.3237 3.1967 43.8917 2.87111 44.5703C2.78933 44.7282 2.70756 44.8861 2.6233 45.0488C2.19582 46.2748 2.29317 47.9634 2.82373 49.1391C3.46501 50.369 4.52995 51.3306 5.49897 52.303C5.65231 52.4578 5.80559 52.6127 5.95882 52.7676C6.3723 53.1852 6.78666 53.6019 7.20133 54.0183C7.46118 54.2793 7.7209 54.5404 7.98057 54.8016C8.79546 55.6209 9.61093 56.4397 10.4272 57.2576C11.3652 58.1976 12.3011 59.1395 13.2354 60.0832C13.9607 60.8156 14.6878 61.5461 15.4164 62.2753C15.8501 62.7095 16.283 63.1444 16.714 63.5813C17.1198 63.9926 17.5279 64.4015 17.9378 64.8088C18.0866 64.9575 18.2347 65.107 18.3818 65.2574C19.7274 66.631 21.213 67.6781 23.1995 67.7099C24.7728 67.6907 26.1701 67.0983 27.2925 65.9839C27.3996 65.8654 27.5068 65.747 27.6172 65.625C27.4291 65.2023 27.2137 64.9145 26.886 64.5893C26.793 64.4963 26.6999 64.4033 26.6041 64.3074C26.5038 64.2086 26.4035 64.1097 26.3002 64.0078C26.1974 63.9054 26.0946 63.803 25.9887 63.6975C25.6606 63.3709 25.3315 63.0453 25.0025 62.7197C24.7797 62.4983 24.557 62.2769 24.3343 62.0553C23.7887 61.5127 23.2423 60.9709 22.6953 60.4297C22.6128 60.4774 22.5304 60.5252 22.4454 60.5744C22.3361 60.6366 22.2269 60.6988 22.1143 60.7629C22.0064 60.8248 21.8986 60.8866 21.7874 60.9504C20.9174 61.3897 19.8674 61.3963 18.948 61.0944C17.8158 60.6158 17.0029 59.6342 16.1553 58.7741C15.9625 58.5812 15.7696 58.3884 15.5765 58.1958C15.1737 57.793 14.7724 57.3888 14.3721 56.9835C13.8605 56.4657 13.3459 55.951 12.8303 55.4372C12.4321 55.0399 12.0352 54.6413 11.6388 54.2422C11.4496 54.0519 11.2601 53.862 11.0701 53.6725C10.8044 53.4069 10.5406 53.1396 10.2772 52.8718C10.1995 52.7948 10.1218 52.7178 10.0417 52.6384C9.23861 51.8138 8.80854 51.0046 8.81837 49.834C8.83913 48.9646 8.98939 48.4506 9.43361 47.7148C9.48737 47.1905 9.48737 47.1905 9.25286 46.9205C9.16827 46.8367 9.08367 46.7529 8.99651 46.6666C8.90115 46.5708 8.80579 46.4751 8.70754 46.3764C8.6033 46.2746 8.49906 46.1727 8.39166 46.0678C8.28577 45.9623 8.17988 45.8569 8.07079 45.7483C7.84672 45.5256 7.622 45.3036 7.39668 45.0822C7.05025 44.7419 6.70569 44.3997 6.36144 44.0571C6.14392 43.8414 5.92629 43.6258 5.70856 43.4103C5.55261 43.2559 5.55261 43.2559 5.39352 43.0983C5.29772 43.0043 5.20193 42.9103 5.10323 42.8134C5.01853 42.73 4.93383 42.6467 4.84656 42.5608C4.48585 42.2367 4.37994 42.4848 4.0674 42.7844ZM31.9922 47.1679C32.5916 47.886 33.2238 48.5532 33.8892 49.2102C33.9833 49.3037 34.0774 49.3972 34.1744 49.4935C34.4037 49.7212 34.6333 49.9486 34.8633 50.1758C35.5813 49.5763 36.2486 48.9441 36.9055 48.2788C36.999 48.1847 37.0925 48.0906 37.1888 47.9936C37.4166 47.7643 37.644 47.5346 37.8711 47.3047C37.5271 47.2062 37.3356 47.166 36.976 47.2267C36.3053 47.3375 35.6444 47.3244 34.9658 47.3218C34.831 47.3223 34.6962 47.3228 34.5573 47.3234C33.6942 47.3222 32.849 47.2715 31.9922 47.1679ZM29.0704 48.8012C28.9133 48.8296 28.7563 48.8579 28.5944 48.8871C27.9659 49.0014 27.3374 49.1162 26.7091 49.2318C26.233 49.3193 25.7568 49.4063 25.2803 49.492C24.7304 49.5908 24.181 49.692 23.6315 49.7934C23.4626 49.8234 23.2936 49.8535 23.1195 49.8845C21.2114 50.241 19.6324 50.8529 18.4934 52.4989C18.0076 53.2695 17.6879 54.0664 17.3889 54.9267C17.3415 55.0601 17.3415 55.0601 17.293 55.1962C17.132 55.6784 17.0426 55.9878 17.2266 56.4648C17.4519 56.7487 17.4519 56.7487 17.7387 57.0218C17.8419 57.1243 17.9451 57.2268 18.0514 57.3324C18.1599 57.4381 18.2684 57.5437 18.3801 57.6526C18.5421 57.8134 18.5421 57.8134 18.7073 57.9775C19.3501 58.6742 19.3501 58.6742 20.2098 58.9647C20.7393 58.9173 20.9124 58.7844 21.311 58.4387C21.5043 58.2719 21.5043 58.2719 21.7014 58.1017C22.4129 57.4605 23.1096 56.8034 23.8035 56.1433C24.2588 55.7122 24.7266 55.2977 25.2013 54.8881C25.3742 54.7362 25.5404 54.5768 25.7031 54.414C26.1802 54.4623 26.2612 54.563 26.6016 54.9364C26.7374 55.1064 26.8728 55.2767 27.0078 55.4472C28.4746 57.2025 29.882 58.8751 32.2756 59.0911C33.3394 59.1462 34.3974 59.1191 35.4607 59.0682C36.101 59.0421 36.7413 59.0401 37.382 59.0353C38.5883 59.0227 39.793 58.9892 40.9986 58.9477C42.3739 58.9014 43.7493 58.8792 45.1252 58.8587C47.9489 58.8162 50.7712 58.7443 53.5938 58.6523C53.3774 57.9562 53.1587 57.2609 52.9379 56.5662C52.8633 56.3303 52.7893 56.0943 52.716 55.8581C52.313 54.5614 51.9299 53.3447 51.1328 52.2265C51.0341 52.0827 50.9354 51.9389 50.8338 51.7907C50.0088 50.9657 49.1475 50.4638 48.0065 50.2062C47.3298 50.0508 46.6657 49.8778 46.004 49.6665C42.7119 48.5203 42.7119 48.5203 39.3809 48.8501C37.5757 49.9513 36.2087 51.7532 35 53.457C34.5837 53.271 34.2987 53.0622 33.9791 52.7384C33.8892 52.6481 33.7994 52.5578 33.7068 52.4647C33.6114 52.3674 33.5159 52.2702 33.4176 52.1699C33.3186 52.0702 33.2195 51.9704 33.1175 51.8676C32.8015 51.5493 32.4865 51.23 32.1716 50.9106C31.8552 50.5904 31.5385 50.2703 31.2214 49.9507C31.0242 49.7517 30.8273 49.5524 30.6308 49.3527C30.5422 49.2633 30.4537 49.1738 30.3624 49.0817C30.2451 48.9627 30.2451 48.9627 30.1255 48.8413C29.807 48.5481 29.4812 48.7271 29.0704 48.8012ZM25.4372 57.7978C25.2897 57.9501 25.2897 57.9501 25.1392 58.1054C25.0401 58.207 24.9411 58.3085 24.839 58.4131C24.7633 58.492 24.6875 58.571 24.6094 58.6523C24.7975 59.075 25.0129 59.3628 25.3406 59.688C25.4336 59.781 25.5267 59.874 25.6225 59.9699C25.7228 60.0687 25.8231 60.1676 25.9264 60.2694C26.0292 60.3718 26.132 60.4743 26.2379 60.5798C26.566 60.9064 26.895 61.232 27.2241 61.5576C27.4469 61.779 27.6696 62.0004 27.8922 62.222C28.4379 62.7646 28.9843 63.3064 29.5313 63.8476C29.6828 63.7231 29.8336 63.5975 29.9841 63.4717C30.0682 63.4019 30.1523 63.3321 30.2389 63.2602C30.4964 63.0197 30.6955 62.7677 30.8985 62.4804C30.2035 61.7785 29.5074 61.0777 28.8106 60.3776C28.5735 60.1391 28.3367 59.9004 28.1001 59.6614C27.7607 59.3187 27.4204 58.9769 27.0799 58.6352C26.9737 58.5276 26.8674 58.4199 26.758 58.309C26.6595 58.2104 26.5609 58.1119 26.4594 58.0104C26.3726 57.9229 26.2858 57.8355 26.1963 57.7454C25.8582 57.4579 25.7626 57.505 25.4372 57.7978Z" fill="#333333"/><path d="M50.5152 -0.0365883C50.7386 -0.0383376 50.7386 -0.0383376 50.9665 -0.0401223C51.2095 -0.0399364 51.2095 -0.0399364 51.4574 -0.0397468C51.6291 -0.0406651 51.8008 -0.0415835 51.9777 -0.0425297C52.4478 -0.0449408 52.9179 -0.045586 53.3879 -0.0457606C53.682 -0.0459552 53.976 -0.0465395 54.2701 -0.0472637C55.297 -0.0497921 56.3239 -0.0509102 57.3508 -0.0506949C58.3063 -0.0505308 59.2617 -0.0534143 60.2172 -0.0577342C61.0389 -0.0613164 61.8606 -0.0627762 62.6823 -0.0626017C63.1725 -0.0625321 63.6626 -0.0633012 64.1528 -0.066205C64.7 -0.0693584 65.247 -0.068097 65.7942 -0.0664496C66.036 -0.0687545 66.036 -0.0687545 66.2827 -0.071106C67.3606 -0.0628678 68.0899 0.0894606 68.9346 0.80106C69.007 0.88636 69.0795 0.97166 69.1541 1.05954C69.2283 1.14343 69.3025 1.22732 69.3789 1.31376C69.8926 2.1097 70.0514 2.85605 70.0553 3.79282C70.0562 3.89235 70.0571 3.99188 70.0581 4.09442C70.0606 4.41993 70.0601 4.74534 70.0593 5.07085C70.0599 5.2993 70.0607 5.52775 70.0615 5.7562C70.0627 6.23368 70.0624 6.71114 70.061 7.18862C70.0594 7.79788 70.0622 8.40703 70.0662 9.01628C70.0687 9.48769 70.0687 9.95907 70.0679 10.4305C70.0679 10.655 70.0687 10.8795 70.0704 11.104C70.0796 12.5133 70.0061 13.6438 69.137 14.8083C68.6035 15.3418 68.0213 15.7247 67.2657 15.8593C67.007 15.8561 66.7484 15.8457 66.4902 15.8305C63.9965 15.7496 62.5495 16.3006 60.5576 17.7597C59.8983 18.2314 59.2066 18.6487 58.5157 19.0722C58.2453 19.2409 57.975 19.4099 57.705 19.5791C57.1262 19.9408 56.5473 20.3021 55.9682 20.6632C55.7453 20.8022 55.7453 20.8022 55.518 20.9441C55.2339 21.1213 54.9498 21.2985 54.6656 21.4755C53.8791 21.9661 53.8791 21.9661 53.1078 22.4801C52.7735 22.6953 52.7735 22.6953 52.5 22.6953C52.5888 21.8292 52.7102 20.976 52.8595 20.1185C52.8805 19.9958 52.9015 19.8731 52.9232 19.7467C52.9898 19.3595 53.0568 18.9723 53.1238 18.5852C53.1693 18.3207 53.2148 18.0563 53.2603 17.7918C53.3711 17.1476 53.4823 16.5035 53.5938 15.8593C53.4891 15.8629 53.3845 15.8665 53.2766 15.8702C52.7956 15.8845 52.3147 15.8933 51.8335 15.9021C51.5866 15.9107 51.5866 15.9107 51.3347 15.9194C50.0704 15.9366 49.1817 15.7135 48.2019 14.8986C48.1314 14.8124 48.0609 14.7262 47.9883 14.6374C47.915 14.5516 47.8417 14.4658 47.7661 14.3773C47.3283 13.6895 47.2636 12.9959 47.2628 12.1988C47.2617 12.0955 47.2606 11.9922 47.2594 11.8858C47.2561 11.5462 47.2549 11.2066 47.254 10.867C47.2528 10.6293 47.2515 10.3916 47.2502 10.1539C47.248 9.65601 47.2469 9.15817 47.2465 8.66032C47.2458 8.02531 47.2407 7.39042 47.2344 6.75544C47.2303 6.26444 47.2293 5.77346 47.2292 5.28245C47.2286 5.04851 47.227 4.81457 47.2241 4.58065C47.1963 2.11831 47.1963 2.11831 47.9883 1.09372C48.7347 0.3936 49.4737 -0.0328888 50.5152 -0.0365883ZM49.7657 2.87107C49.5706 3.26117 49.6094 3.59457 49.6069 4.03067C49.6062 4.12163 49.6055 4.21258 49.6048 4.30629C49.6028 4.60779 49.6019 4.90927 49.6012 5.21077C49.6004 5.42025 49.5996 5.62972 49.5988 5.8392C49.5974 6.27882 49.5966 6.71843 49.5961 7.15805C49.5953 7.72077 49.5921 8.28345 49.5882 8.84616C49.5856 9.27908 49.5849 9.71198 49.5847 10.1449C49.5843 10.3523 49.5832 10.5597 49.5814 10.7671C49.5791 11.0577 49.5793 11.3482 49.5802 11.6389C49.5797 11.8041 49.5792 11.9693 49.5787 12.1396C49.6345 12.6271 49.7369 12.8777 50.0391 13.2617C50.424 13.523 50.728 13.5689 51.1877 13.5662C51.3054 13.5662 51.423 13.5661 51.5443 13.5661C51.67 13.5647 51.7958 13.5633 51.9254 13.5618C52.12 13.5613 52.12 13.5613 52.3185 13.5607C52.7322 13.5591 53.1459 13.5557 53.5596 13.5522C53.8403 13.5508 54.1211 13.5496 54.4018 13.5485C55.0895 13.5455 55.7772 13.5407 56.4649 13.5351C56.4442 13.6489 56.4235 13.7628 56.4021 13.88C56.3254 14.3027 56.249 14.7254 56.1728 15.1482C56.1398 15.331 56.1066 15.5139 56.0733 15.6968C56.0255 15.9597 55.9781 16.2228 55.9308 16.4858C55.9022 16.644 55.8735 16.8023 55.844 16.9653C55.7706 17.3636 55.7706 17.3636 55.7813 17.7734C56.4518 17.5446 57.0101 17.1721 57.6013 16.7907C57.8313 16.644 58.0613 16.4973 58.2914 16.3507C58.4145 16.2721 58.5376 16.1935 58.6644 16.1125C59.39 15.6511 60.1193 15.1957 60.8484 14.74C60.9924 14.6498 61.1363 14.5596 61.2846 14.4667C61.4186 14.3829 61.5526 14.2992 61.6906 14.2128C61.8101 14.1381 61.9296 14.0633 62.0528 13.9863C62.5648 13.6736 62.8784 13.6521 63.4824 13.643C63.6567 13.6391 63.831 13.6353 64.0106 13.6313C64.2875 13.6256 64.5643 13.6206 64.8412 13.617C65.1089 13.6132 65.3766 13.6068 65.6443 13.6003C65.8844 13.5962 65.8844 13.5962 66.1293 13.5921C66.6335 13.5287 66.9693 13.3873 67.4024 13.125C67.6017 12.7263 67.5609 12.373 67.5655 11.9277C67.5666 11.8328 67.5677 11.7378 67.5688 11.64C67.5722 11.3252 67.5745 11.0104 67.5765 10.6955C67.5776 10.5343 67.5776 10.5343 67.5787 10.3698C67.5823 9.80078 67.585 9.23178 67.587 8.66276C67.5892 8.07518 67.5954 7.4877 67.6023 6.90016C67.6069 6.44824 67.6085 5.99635 67.6093 5.54441C67.6102 5.32784 67.6123 5.11127 67.6155 4.89473C67.6199 4.59129 67.6199 4.28814 67.6189 3.98468C67.6205 3.72588 67.6205 3.72588 67.6222 3.46186C67.5658 2.99618 67.5658 2.99618 67.2906 2.61033C66.6371 2.18056 66.0493 2.22973 65.2827 2.23791C65.1237 2.23693 64.9647 2.23595 64.8008 2.23494C64.2751 2.23263 63.7496 2.23529 63.2239 2.23821C62.8587 2.2381 62.4935 2.23777 62.1283 2.23721C61.3628 2.23659 60.5974 2.23876 59.832 2.24258C58.9478 2.24696 58.0637 2.24696 57.1794 2.2446C56.3279 2.24243 55.4764 2.24336 54.6248 2.24569C54.2629 2.2464 53.9009 2.24633 53.539 2.24548C53.0333 2.24473 52.5277 2.24751 52.022 2.25126C51.8722 2.25037 51.7223 2.24948 51.5679 2.24856C50.553 2.2595 50.553 2.2595 49.7657 2.87107Z" fill="#333333"/><path d="M44.2969 4.64847C44.2217 5.47534 44.0365 6.19421 43.75 6.97268C43.1131 6.90349 42.5089 6.81113 41.8873 6.65025C37.9228 5.62648 33.552 5.48478 29.5312 6.28909C29.4127 6.31255 29.2942 6.33601 29.1721 6.36019C25.2275 7.16742 21.4698 8.73736 18.1836 11.0742C18.1064 11.1287 18.0291 11.1831 17.9495 11.2392C17.0804 11.8565 16.2721 12.5243 15.4893 13.2473C15.2112 13.5027 14.9268 13.7457 14.6375 13.9881C10.7288 17.4189 7.95767 22.6165 6.69922 27.6172C6.77505 27.5702 6.85087 27.5232 6.929 27.4748C7.2726 27.2636 7.61816 27.0559 7.96387 26.8482C8.14284 26.7371 8.14284 26.7371 8.32542 26.6239C8.44086 26.5551 8.5563 26.4864 8.67523 26.4156C8.7812 26.3511 8.88716 26.2867 8.99633 26.2203C9.29688 26.1133 9.29688 26.1133 9.59431 26.212C9.92779 26.4456 10.0882 26.7047 10.2966 27.0533C10.3694 27.1713 10.4422 27.2894 10.5172 27.4111C10.6641 27.7539 10.6641 27.7539 10.6526 28.017C10.4628 28.4471 10.1642 28.5732 9.76311 28.8098C9.68491 28.8566 9.6067 28.9034 9.52613 28.9516C9.2712 29.1038 9.01494 29.2535 8.75854 29.4031C8.58356 29.5067 8.40867 29.6105 8.23387 29.7144C7.97134 29.8704 7.70874 30.0263 7.44572 30.1814C6.92976 30.4861 6.41886 30.7972 5.91202 31.1169C5.74281 31.2233 5.74281 31.2233 5.57019 31.3318C5.36462 31.4616 5.15962 31.5924 4.95529 31.7242C4.72259 31.8697 4.48108 32.001 4.23828 32.1289C3.68447 31.9443 3.61999 31.7006 3.33252 31.1981C3.28552 31.1168 3.23851 31.0356 3.19009 30.9519C3.03707 30.6869 2.88573 30.421 2.73438 30.1551C2.52569 29.7923 2.31623 29.43 2.10686 29.0677C2.05523 28.9781 2.00361 28.8885 1.95042 28.7961C1.45702 27.9412 0.942546 27.0999 0.416832 26.2645C0 25.5948 0 25.5948 0 25.293C0.284223 25.0911 0.565036 24.9083 0.863037 24.729C0.944371 24.6781 1.02571 24.6272 1.1095 24.5747C1.72493 24.1992 1.72493 24.1992 2.1875 24.1992C2.39722 24.471 2.39722 24.471 2.61635 24.8476C2.73465 25.0493 2.73465 25.0493 2.85534 25.2551C2.93667 25.3973 3.01801 25.5395 3.10181 25.6861C3.22619 25.8978 3.22619 25.8978 3.35308 26.1138C3.96484 27.1667 3.96484 27.1667 3.96484 27.4805C4.05508 27.4805 4.14531 27.4805 4.23828 27.4805C4.2522 27.3279 4.26613 27.1753 4.28047 27.018C4.36761 26.3278 4.56984 25.6934 4.7937 25.0366C4.83621 24.9112 4.87871 24.7857 4.92251 24.6565C5.95988 21.6615 7.41068 18.8175 9.29688 16.2696C9.35693 16.188 9.41698 16.1065 9.47886 16.0226C14.5008 9.26949 21.9663 4.92409 30.2533 3.59424C30.7414 3.52465 31.2282 3.46666 31.7188 3.418C31.9458 3.39526 31.9458 3.39526 32.1775 3.37207C36.288 3.02204 40.3364 3.52349 44.2969 4.64847Z" fill="#4A3AFF"/><path d="M62.6172 20.918C63.2051 21.1307 63.728 21.4273 64.2621 21.7479C64.354 21.8026 64.4459 21.8572 64.5406 21.9136C64.834 22.0883 65.127 22.2636 65.4199 22.439C65.6125 22.5537 65.8051 22.6683 65.9978 22.7829C67.1558 23.4728 68.3073 24.1727 69.4531 24.8828C69.2578 25.386 69.0349 25.8321 68.7524 26.2927C68.6788 26.4134 68.6051 26.5342 68.5292 26.6586C68.4732 26.7493 68.4171 26.8401 68.3594 26.9336C67.8567 26.8559 67.501 26.7238 67.0707 26.4545C66.9619 26.3871 66.853 26.3197 66.7409 26.2503C66.6293 26.1797 66.5176 26.1091 66.4026 26.0364C66.2883 25.9653 66.174 25.8942 66.0563 25.8209C65.7752 25.6458 65.4948 25.4698 65.2148 25.293C65.2417 25.4 65.2685 25.5071 65.2962 25.6174C67.4827 34.4225 66.8944 43.319 62.207 51.2695C61.4143 52.5477 60.571 53.8029 59.6094 54.9609C59.0536 54.7734 58.6969 54.5206 58.2678 54.1235C58.1598 54.0245 58.0518 53.9254 57.9404 53.8234C57.8191 53.7097 57.8191 53.7097 57.6953 53.5938C57.9008 52.9715 58.2558 52.5067 58.6523 51.9958C59.5064 50.8603 60.1908 49.6604 60.8398 48.3984C60.8938 48.2941 60.9477 48.1897 61.0033 48.0822C64.5309 41.177 64.8296 33.4932 62.7539 26.1133C62.6637 26.1133 62.5734 26.1133 62.4805 26.1133C62.2856 26.3741 62.2856 26.3741 62.0949 26.7114C62.0217 26.8348 61.9486 26.9582 61.8732 27.0853C61.7973 27.2157 61.7213 27.3461 61.6431 27.4805C61.566 27.6109 61.489 27.7413 61.4097 27.8757C61.2188 28.1991 61.0289 28.5231 60.8398 28.8477C60.2789 28.6802 59.833 28.4815 59.353 28.147C59.2462 28.0733 59.1394 27.9996 59.0294 27.9237C58.9501 27.8677 58.8708 27.8116 58.7891 27.7539C58.8685 27.1589 59.0849 26.7557 59.3995 26.2479C59.4473 26.17 59.495 26.0922 59.5442 26.012C59.6989 25.7604 59.8549 25.5096 60.011 25.2588C60.1703 25.0002 60.3293 24.7414 60.4882 24.4825C60.5936 24.3111 60.699 24.1396 60.8046 23.9683C61.2381 23.2642 61.6617 22.5547 62.0789 21.8408C62.163 21.6969 62.163 21.6969 62.2489 21.5502C62.3719 21.3396 62.4946 21.1288 62.6172 20.918Z" fill="#4A3AFF"/><path d="M51.8164 4.51172C56.3281 4.51172 60.8398 4.51172 65.4883 4.51172C65.4883 5.27871 65.4883 6.0457 65.4883 6.83594C60.9766 6.83594 56.4648 6.83594 51.8164 6.83594C51.8164 6.06895 51.8164 5.30195 51.8164 4.51172Z" fill="#333333"/><path d="M51.8164 9.02344C54.8393 9.02344 57.8621 9.02344 60.9766 9.02344C60.9766 9.79043 60.9766 10.5574 60.9766 11.3477C57.9537 11.3477 54.9309 11.3477 51.8164 11.3477C51.8164 10.5807 51.8164 9.81367 51.8164 9.02344Z" fill="#333333"/><path d="M63.0273 9.02344C63.8395 9.02344 64.6516 9.02344 65.4883 9.02344C65.4883 9.79043 65.4883 10.5574 65.4883 11.3477C64.6762 11.3477 63.8641 11.3477 63.0273 11.3477C63.0273 10.5807 63.0273 9.81367 63.0273 9.02344Z" fill="#333333"/></g><defs><clipPath id="clip0_2083_10"><rect width="70" height="70" fill="white"/></clipPath></defs></svg>