<svg width="125" height="129" viewBox="0 0 125 129" fill="none" xmlns="http://www.w3.org/2000/svg">
<path d="M8.1639 39.5891L13.8066 44.9682L21.2916 42.7892L15.9125 48.4319L18.0915 55.9169L12.4489 50.5378L4.96381 52.7168L10.3429 47.0742L8.1639 39.5891Z" fill="#14C88C"/>
<path fill-rule="evenodd" clip-rule="evenodd" d="M74.5819 41.216L60.9907 28.1967L66.2949 46.2546L53.4495 59.7953L71.3825 54.6221L84.9738 67.6413L84.0602 64.531L84.7284 65.1711L85.2531 64.618L83.6286 63.0618L79.6695 49.5834L89.2573 39.4768L91.4008 38.8584L91.1841 38.1207L90.3024 38.375L92.5149 36.0428L74.5819 41.216ZM90.3024 38.375L88.1953 38.9829L88.412 39.7206L89.2573 39.4768L90.3024 38.375ZM83.6286 63.0618L82.9879 62.4481L82.4632 63.0013L84.0602 64.531L83.6286 63.0618ZM65.2757 30.0663L65.261 30.0817L65.3178 30.2748L64.9875 30.3701L64.7509 30.6194L64.6056 30.4802L64.5851 30.4861L64.1431 28.9813L65.2757 30.0663ZM67.5409 32.2361L69.8061 34.406L69.2814 34.9592L67.0161 32.7893L67.5409 32.2361ZM72.0713 36.5759L74.3366 38.7458L73.8118 39.2989L71.5466 37.1291L72.0713 36.5759ZM76.6018 40.9156L77.7344 42.0006L79.2288 41.5695L79.4455 42.3072L77.5293 42.86L76.077 41.4688L76.6018 40.9156ZM82.2176 40.7073L85.2064 39.8451L85.4231 40.5828L82.4343 41.445L82.2176 40.7073ZM94.179 37.2791L94.1729 37.2585L95.6673 36.8274L94.5969 37.9558L94.5814 37.9409L94.3896 37.9962L94.2919 37.6637L94.0416 37.4239L94.179 37.2791ZM92.456 40.2126L90.3151 42.4693L89.7598 41.9375L91.9007 39.6807L92.456 40.2126ZM88.1742 44.7261L86.0333 46.9829L85.478 46.451L87.6189 44.1942L88.1742 44.7261ZM83.8924 49.2397L82.8219 50.368L83.264 51.8729L82.5313 52.0842L81.9646 50.1546L83.3371 48.7078L83.8924 49.2397ZM84.148 54.8825L85.032 57.8922L84.2994 58.1035L83.4154 55.0939L84.148 54.8825ZM85.9161 60.9018L86.8001 63.9115L86.0675 64.1228L85.1835 61.1132L85.9161 60.9018ZM87.6637 66.927L87.6842 66.9211L88.1262 68.426L86.9936 67.341L87.0083 67.3255L86.9515 67.1325L87.2818 67.0372L87.5184 66.7878L87.6637 66.927ZM80.198 60.8314L77.9327 58.6615L78.4575 58.1083L80.7227 60.2782L80.198 60.8314ZM75.6675 56.4916L74.5349 55.4067L73.0405 55.8378L72.8238 55.1001L74.74 54.5473L76.1923 55.9385L75.6675 56.4916ZM70.0517 56.7L67.0629 57.5622L66.8462 56.8245L69.835 55.9623L70.0517 56.7ZM64.074 58.4244L61.0852 59.2866L60.8685 58.5489L63.8573 57.6867L64.074 58.4244ZM58.0903 60.1281L58.0964 60.1488L56.602 60.5799L57.6724 59.4515L57.6879 59.4664L57.8797 59.411L57.9774 59.7436L58.2277 59.9834L58.0903 60.1281ZM59.8133 57.1947L61.9542 54.9379L62.5095 55.4698L60.3686 57.7266L59.8133 57.1947ZM64.0951 52.6812L66.236 50.4244L66.7913 50.9563L64.6504 53.213L64.0951 52.6812ZM68.3769 48.1676L69.4474 47.0392L69.0053 45.5344L69.738 45.3231L70.3047 47.2526L68.9322 48.6995L68.3769 48.1676ZM68.1213 42.5247L67.2373 39.5151L67.9699 39.3038L68.8539 42.3134L68.1213 42.5247ZM66.3532 36.5054L65.4692 33.4958L66.2018 33.2845L67.0858 36.2941L66.3532 36.5054Z" fill="#222222"/>
<path d="M57.9406 97.0073L61.1718 100.141C60.98 100.339 60.985 100.655 61.183 100.848L63.1576 102.763L63.3645 102.964L63.6416 102.885L66.2102 102.163C66.4756 102.088 66.629 101.812 66.5544 101.546L70.7294 100.371C70.8043 100.637 71.0817 100.792 71.3474 100.717L72.1884 100.48L71.5914 101.118C71.4027 101.32 71.413 101.637 71.6145 101.825L68.6501 104.991C68.4737 104.826 68.21 104.814 68.0203 104.948L67.9438 105.014L66.12 106.962L65.9236 107.172L66.0064 107.448L66.7978 110.082C66.8773 110.346 67.1551 110.495 67.4193 110.416L68.7147 114.727C68.4508 114.807 68.3013 115.087 68.3807 115.351L68.6185 116.142L68.0252 115.567C67.827 115.375 67.5097 115.38 67.3175 115.578L64.0863 112.444L64.0871 112.444C64.2793 112.245 64.2748 111.929 64.0768 111.737L62.1021 109.822L61.8958 109.621L61.6182 109.699L59.0496 110.422L58.9559 110.459C58.749 110.566 58.6382 110.806 58.7037 111.039L58.7029 111.039L54.5279 112.214L54.5287 112.214C54.4539 111.948 54.1781 111.793 53.9124 111.867L53.07 112.104L53.6683 111.466C53.8569 111.264 53.8459 110.948 53.6444 110.759L56.6088 107.593C56.7853 107.759 57.0497 107.771 57.2395 107.636L57.316 107.57L59.1398 105.623L59.3367 105.413L59.2534 105.136L58.4619 102.502C58.3824 102.238 58.1035 102.088 57.8391 102.168L57.8378 102.167L56.5424 97.8563L56.5438 97.8566C56.775 97.787 56.9184 97.5646 56.8974 97.333L56.8783 97.2338L56.64 96.4415L57.2337 97.0177C57.4317 97.2097 57.7483 97.205 57.9406 97.0073Z" fill="#14C88C" stroke="#14C88C" stroke-linecap="round" stroke-dasharray="4 4"/>
</svg>
